%TF.GenerationSoftware,KiCad,Pcbnew,8.0.4*%
%TF.CreationDate,2026-01-14T17:00:29-06:00*%
%TF.ProjectId,PCB,5043422e-6b69-4636-9164-5f7063625858,rev?*%
%TF.SameCoordinates,Original*%
%TF.FileFunction,Legend,Top*%
%TF.FilePolarity,Positive*%
%FSLAX46Y46*%
G04 Gerber Fmt 4.6, Leading zero omitted, Abs format (unit mm)*
G04 Created by KiCad (PCBNEW 8.0.4) date 2026-01-14 17:00:29*
%MOMM*%
%LPD*%
G01*
G04 APERTURE LIST*
%ADD10C,0.200000*%
%ADD11C,0.100000*%
%ADD12C,0.150000*%
%ADD13C,0.120000*%
G04 APERTURE END LIST*
D10*
X119610625Y-123634193D02*
X120027292Y-124884193D01*
X120027292Y-124884193D02*
X120443958Y-123634193D01*
X121396340Y-124884193D02*
X121396340Y-124229431D01*
X121396340Y-124229431D02*
X121336816Y-124110384D01*
X121336816Y-124110384D02*
X121217768Y-124050860D01*
X121217768Y-124050860D02*
X120979673Y-124050860D01*
X120979673Y-124050860D02*
X120860626Y-124110384D01*
X121396340Y-124824670D02*
X121277292Y-124884193D01*
X121277292Y-124884193D02*
X120979673Y-124884193D01*
X120979673Y-124884193D02*
X120860626Y-124824670D01*
X120860626Y-124824670D02*
X120801102Y-124705622D01*
X120801102Y-124705622D02*
X120801102Y-124586574D01*
X120801102Y-124586574D02*
X120860626Y-124467527D01*
X120860626Y-124467527D02*
X120979673Y-124408003D01*
X120979673Y-124408003D02*
X121277292Y-124408003D01*
X121277292Y-124408003D02*
X121396340Y-124348479D01*
X121991578Y-124050860D02*
X121991578Y-124884193D01*
X121991578Y-124169908D02*
X122051101Y-124110384D01*
X122051101Y-124110384D02*
X122170149Y-124050860D01*
X122170149Y-124050860D02*
X122348720Y-124050860D01*
X122348720Y-124050860D02*
X122467768Y-124110384D01*
X122467768Y-124110384D02*
X122527292Y-124229431D01*
X122527292Y-124229431D02*
X122527292Y-124884193D01*
X123658244Y-124884193D02*
X123658244Y-123634193D01*
X123658244Y-124824670D02*
X123539196Y-124884193D01*
X123539196Y-124884193D02*
X123301101Y-124884193D01*
X123301101Y-124884193D02*
X123182053Y-124824670D01*
X123182053Y-124824670D02*
X123122530Y-124765146D01*
X123122530Y-124765146D02*
X123063006Y-124646098D01*
X123063006Y-124646098D02*
X123063006Y-124288955D01*
X123063006Y-124288955D02*
X123122530Y-124169908D01*
X123122530Y-124169908D02*
X123182053Y-124110384D01*
X123182053Y-124110384D02*
X123301101Y-124050860D01*
X123301101Y-124050860D02*
X123539196Y-124050860D01*
X123539196Y-124050860D02*
X123658244Y-124110384D01*
X124789196Y-124884193D02*
X124789196Y-124229431D01*
X124789196Y-124229431D02*
X124729672Y-124110384D01*
X124729672Y-124110384D02*
X124610624Y-124050860D01*
X124610624Y-124050860D02*
X124372529Y-124050860D01*
X124372529Y-124050860D02*
X124253482Y-124110384D01*
X124789196Y-124824670D02*
X124670148Y-124884193D01*
X124670148Y-124884193D02*
X124372529Y-124884193D01*
X124372529Y-124884193D02*
X124253482Y-124824670D01*
X124253482Y-124824670D02*
X124193958Y-124705622D01*
X124193958Y-124705622D02*
X124193958Y-124586574D01*
X124193958Y-124586574D02*
X124253482Y-124467527D01*
X124253482Y-124467527D02*
X124372529Y-124408003D01*
X124372529Y-124408003D02*
X124670148Y-124408003D01*
X124670148Y-124408003D02*
X124789196Y-124348479D01*
X125384434Y-124884193D02*
X125384434Y-124050860D01*
X125384434Y-124288955D02*
X125443957Y-124169908D01*
X125443957Y-124169908D02*
X125503481Y-124110384D01*
X125503481Y-124110384D02*
X125622529Y-124050860D01*
X125622529Y-124050860D02*
X125741576Y-124050860D01*
X127051101Y-124824670D02*
X127229672Y-124884193D01*
X127229672Y-124884193D02*
X127527291Y-124884193D01*
X127527291Y-124884193D02*
X127646339Y-124824670D01*
X127646339Y-124824670D02*
X127705863Y-124765146D01*
X127705863Y-124765146D02*
X127765386Y-124646098D01*
X127765386Y-124646098D02*
X127765386Y-124527050D01*
X127765386Y-124527050D02*
X127705863Y-124408003D01*
X127705863Y-124408003D02*
X127646339Y-124348479D01*
X127646339Y-124348479D02*
X127527291Y-124288955D01*
X127527291Y-124288955D02*
X127289196Y-124229431D01*
X127289196Y-124229431D02*
X127170148Y-124169908D01*
X127170148Y-124169908D02*
X127110625Y-124110384D01*
X127110625Y-124110384D02*
X127051101Y-123991336D01*
X127051101Y-123991336D02*
X127051101Y-123872289D01*
X127051101Y-123872289D02*
X127110625Y-123753241D01*
X127110625Y-123753241D02*
X127170148Y-123693717D01*
X127170148Y-123693717D02*
X127289196Y-123634193D01*
X127289196Y-123634193D02*
X127586815Y-123634193D01*
X127586815Y-123634193D02*
X127765386Y-123693717D01*
X128182053Y-124050860D02*
X128479672Y-124884193D01*
X128777291Y-124050860D02*
X128479672Y-124884193D01*
X128479672Y-124884193D02*
X128360624Y-125181812D01*
X128360624Y-125181812D02*
X128301101Y-125241336D01*
X128301101Y-125241336D02*
X128182053Y-125300860D01*
X129193958Y-124824670D02*
X129313005Y-124884193D01*
X129313005Y-124884193D02*
X129551101Y-124884193D01*
X129551101Y-124884193D02*
X129670148Y-124824670D01*
X129670148Y-124824670D02*
X129729672Y-124705622D01*
X129729672Y-124705622D02*
X129729672Y-124646098D01*
X129729672Y-124646098D02*
X129670148Y-124527050D01*
X129670148Y-124527050D02*
X129551101Y-124467527D01*
X129551101Y-124467527D02*
X129372529Y-124467527D01*
X129372529Y-124467527D02*
X129253482Y-124408003D01*
X129253482Y-124408003D02*
X129193958Y-124288955D01*
X129193958Y-124288955D02*
X129193958Y-124229431D01*
X129193958Y-124229431D02*
X129253482Y-124110384D01*
X129253482Y-124110384D02*
X129372529Y-124050860D01*
X129372529Y-124050860D02*
X129551101Y-124050860D01*
X129551101Y-124050860D02*
X129670148Y-124110384D01*
X130086815Y-124050860D02*
X130563006Y-124050860D01*
X130265387Y-123634193D02*
X130265387Y-124705622D01*
X130265387Y-124705622D02*
X130324910Y-124824670D01*
X130324910Y-124824670D02*
X130443958Y-124884193D01*
X130443958Y-124884193D02*
X130563006Y-124884193D01*
X131455863Y-124824670D02*
X131336815Y-124884193D01*
X131336815Y-124884193D02*
X131098720Y-124884193D01*
X131098720Y-124884193D02*
X130979673Y-124824670D01*
X130979673Y-124824670D02*
X130920149Y-124705622D01*
X130920149Y-124705622D02*
X130920149Y-124229431D01*
X130920149Y-124229431D02*
X130979673Y-124110384D01*
X130979673Y-124110384D02*
X131098720Y-124050860D01*
X131098720Y-124050860D02*
X131336815Y-124050860D01*
X131336815Y-124050860D02*
X131455863Y-124110384D01*
X131455863Y-124110384D02*
X131515387Y-124229431D01*
X131515387Y-124229431D02*
X131515387Y-124348479D01*
X131515387Y-124348479D02*
X130920149Y-124467527D01*
X132051102Y-124884193D02*
X132051102Y-124050860D01*
X132051102Y-124169908D02*
X132110625Y-124110384D01*
X132110625Y-124110384D02*
X132229673Y-124050860D01*
X132229673Y-124050860D02*
X132408244Y-124050860D01*
X132408244Y-124050860D02*
X132527292Y-124110384D01*
X132527292Y-124110384D02*
X132586816Y-124229431D01*
X132586816Y-124229431D02*
X132586816Y-124884193D01*
X132586816Y-124229431D02*
X132646340Y-124110384D01*
X132646340Y-124110384D02*
X132765387Y-124050860D01*
X132765387Y-124050860D02*
X132943959Y-124050860D01*
X132943959Y-124050860D02*
X133063006Y-124110384D01*
X133063006Y-124110384D02*
X133122530Y-124229431D01*
X133122530Y-124229431D02*
X133122530Y-124884193D01*
X133658245Y-124824670D02*
X133777292Y-124884193D01*
X133777292Y-124884193D02*
X134015388Y-124884193D01*
X134015388Y-124884193D02*
X134134435Y-124824670D01*
X134134435Y-124824670D02*
X134193959Y-124705622D01*
X134193959Y-124705622D02*
X134193959Y-124646098D01*
X134193959Y-124646098D02*
X134134435Y-124527050D01*
X134134435Y-124527050D02*
X134015388Y-124467527D01*
X134015388Y-124467527D02*
X133836816Y-124467527D01*
X133836816Y-124467527D02*
X133717769Y-124408003D01*
X133717769Y-124408003D02*
X133658245Y-124288955D01*
X133658245Y-124288955D02*
X133658245Y-124229431D01*
X133658245Y-124229431D02*
X133717769Y-124110384D01*
X133717769Y-124110384D02*
X133836816Y-124050860D01*
X133836816Y-124050860D02*
X134015388Y-124050860D01*
X134015388Y-124050860D02*
X134134435Y-124110384D01*
X120027292Y-125646623D02*
X120265387Y-125646623D01*
X120265387Y-125646623D02*
X120384435Y-125706147D01*
X120384435Y-125706147D02*
X120503482Y-125825195D01*
X120503482Y-125825195D02*
X120563006Y-126063290D01*
X120563006Y-126063290D02*
X120563006Y-126479957D01*
X120563006Y-126479957D02*
X120503482Y-126718052D01*
X120503482Y-126718052D02*
X120384435Y-126837100D01*
X120384435Y-126837100D02*
X120265387Y-126896623D01*
X120265387Y-126896623D02*
X120027292Y-126896623D01*
X120027292Y-126896623D02*
X119908244Y-126837100D01*
X119908244Y-126837100D02*
X119789197Y-126718052D01*
X119789197Y-126718052D02*
X119729673Y-126479957D01*
X119729673Y-126479957D02*
X119729673Y-126063290D01*
X119729673Y-126063290D02*
X119789197Y-125825195D01*
X119789197Y-125825195D02*
X119908244Y-125706147D01*
X119908244Y-125706147D02*
X120027292Y-125646623D01*
X121813006Y-126777576D02*
X121753482Y-126837100D01*
X121753482Y-126837100D02*
X121574911Y-126896623D01*
X121574911Y-126896623D02*
X121455863Y-126896623D01*
X121455863Y-126896623D02*
X121277292Y-126837100D01*
X121277292Y-126837100D02*
X121158244Y-126718052D01*
X121158244Y-126718052D02*
X121098721Y-126599004D01*
X121098721Y-126599004D02*
X121039197Y-126360909D01*
X121039197Y-126360909D02*
X121039197Y-126182338D01*
X121039197Y-126182338D02*
X121098721Y-125944242D01*
X121098721Y-125944242D02*
X121158244Y-125825195D01*
X121158244Y-125825195D02*
X121277292Y-125706147D01*
X121277292Y-125706147D02*
X121455863Y-125646623D01*
X121455863Y-125646623D02*
X121574911Y-125646623D01*
X121574911Y-125646623D02*
X121753482Y-125706147D01*
X121753482Y-125706147D02*
X121813006Y-125765671D01*
X122348721Y-126896623D02*
X122348721Y-125646623D01*
X122348721Y-125646623D02*
X122824911Y-125646623D01*
X122824911Y-125646623D02*
X122943959Y-125706147D01*
X122943959Y-125706147D02*
X123003482Y-125765671D01*
X123003482Y-125765671D02*
X123063006Y-125884719D01*
X123063006Y-125884719D02*
X123063006Y-126063290D01*
X123063006Y-126063290D02*
X123003482Y-126182338D01*
X123003482Y-126182338D02*
X122943959Y-126241861D01*
X122943959Y-126241861D02*
X122824911Y-126301385D01*
X122824911Y-126301385D02*
X122348721Y-126301385D01*
X123598721Y-126420433D02*
X124551102Y-126420433D01*
X125563006Y-126241861D02*
X125741578Y-126301385D01*
X125741578Y-126301385D02*
X125801101Y-126360909D01*
X125801101Y-126360909D02*
X125860625Y-126479957D01*
X125860625Y-126479957D02*
X125860625Y-126658528D01*
X125860625Y-126658528D02*
X125801101Y-126777576D01*
X125801101Y-126777576D02*
X125741578Y-126837100D01*
X125741578Y-126837100D02*
X125622530Y-126896623D01*
X125622530Y-126896623D02*
X125146340Y-126896623D01*
X125146340Y-126896623D02*
X125146340Y-125646623D01*
X125146340Y-125646623D02*
X125563006Y-125646623D01*
X125563006Y-125646623D02*
X125682054Y-125706147D01*
X125682054Y-125706147D02*
X125741578Y-125765671D01*
X125741578Y-125765671D02*
X125801101Y-125884719D01*
X125801101Y-125884719D02*
X125801101Y-126003766D01*
X125801101Y-126003766D02*
X125741578Y-126122814D01*
X125741578Y-126122814D02*
X125682054Y-126182338D01*
X125682054Y-126182338D02*
X125563006Y-126241861D01*
X125563006Y-126241861D02*
X125146340Y-126241861D01*
X126396340Y-126420433D02*
X127348721Y-126420433D01*
X128598720Y-126896623D02*
X127884435Y-126896623D01*
X128241578Y-126896623D02*
X128241578Y-125646623D01*
X128241578Y-125646623D02*
X128122530Y-125825195D01*
X128122530Y-125825195D02*
X128003482Y-125944242D01*
X128003482Y-125944242D02*
X127884435Y-126003766D01*
D11*
X78223884Y-84148609D02*
X78557217Y-84148609D01*
X78700074Y-84672419D02*
X78223884Y-84672419D01*
X78223884Y-84672419D02*
X78223884Y-83672419D01*
X78223884Y-83672419D02*
X78700074Y-83672419D01*
X79081027Y-84624800D02*
X79223884Y-84672419D01*
X79223884Y-84672419D02*
X79461979Y-84672419D01*
X79461979Y-84672419D02*
X79557217Y-84624800D01*
X79557217Y-84624800D02*
X79604836Y-84577180D01*
X79604836Y-84577180D02*
X79652455Y-84481942D01*
X79652455Y-84481942D02*
X79652455Y-84386704D01*
X79652455Y-84386704D02*
X79604836Y-84291466D01*
X79604836Y-84291466D02*
X79557217Y-84243847D01*
X79557217Y-84243847D02*
X79461979Y-84196228D01*
X79461979Y-84196228D02*
X79271503Y-84148609D01*
X79271503Y-84148609D02*
X79176265Y-84100990D01*
X79176265Y-84100990D02*
X79128646Y-84053371D01*
X79128646Y-84053371D02*
X79081027Y-83958133D01*
X79081027Y-83958133D02*
X79081027Y-83862895D01*
X79081027Y-83862895D02*
X79128646Y-83767657D01*
X79128646Y-83767657D02*
X79176265Y-83720038D01*
X79176265Y-83720038D02*
X79271503Y-83672419D01*
X79271503Y-83672419D02*
X79509598Y-83672419D01*
X79509598Y-83672419D02*
X79652455Y-83720038D01*
X80081027Y-84672419D02*
X80081027Y-83672419D01*
X80081027Y-83672419D02*
X80461979Y-83672419D01*
X80461979Y-83672419D02*
X80557217Y-83720038D01*
X80557217Y-83720038D02*
X80604836Y-83767657D01*
X80604836Y-83767657D02*
X80652455Y-83862895D01*
X80652455Y-83862895D02*
X80652455Y-84005752D01*
X80652455Y-84005752D02*
X80604836Y-84100990D01*
X80604836Y-84100990D02*
X80557217Y-84148609D01*
X80557217Y-84148609D02*
X80461979Y-84196228D01*
X80461979Y-84196228D02*
X80081027Y-84196228D01*
X80985789Y-83672419D02*
X81604836Y-83672419D01*
X81604836Y-83672419D02*
X81271503Y-84053371D01*
X81271503Y-84053371D02*
X81414360Y-84053371D01*
X81414360Y-84053371D02*
X81509598Y-84100990D01*
X81509598Y-84100990D02*
X81557217Y-84148609D01*
X81557217Y-84148609D02*
X81604836Y-84243847D01*
X81604836Y-84243847D02*
X81604836Y-84481942D01*
X81604836Y-84481942D02*
X81557217Y-84577180D01*
X81557217Y-84577180D02*
X81509598Y-84624800D01*
X81509598Y-84624800D02*
X81414360Y-84672419D01*
X81414360Y-84672419D02*
X81128646Y-84672419D01*
X81128646Y-84672419D02*
X81033408Y-84624800D01*
X81033408Y-84624800D02*
X80985789Y-84577180D01*
X81985789Y-83767657D02*
X82033408Y-83720038D01*
X82033408Y-83720038D02*
X82128646Y-83672419D01*
X82128646Y-83672419D02*
X82366741Y-83672419D01*
X82366741Y-83672419D02*
X82461979Y-83720038D01*
X82461979Y-83720038D02*
X82509598Y-83767657D01*
X82509598Y-83767657D02*
X82557217Y-83862895D01*
X82557217Y-83862895D02*
X82557217Y-83958133D01*
X82557217Y-83958133D02*
X82509598Y-84100990D01*
X82509598Y-84100990D02*
X81938170Y-84672419D01*
X81938170Y-84672419D02*
X82557217Y-84672419D01*
X75233884Y-114782419D02*
X75233884Y-113782419D01*
X75233884Y-113782419D02*
X75614836Y-113782419D01*
X75614836Y-113782419D02*
X75710074Y-113830038D01*
X75710074Y-113830038D02*
X75757693Y-113877657D01*
X75757693Y-113877657D02*
X75805312Y-113972895D01*
X75805312Y-113972895D02*
X75805312Y-114115752D01*
X75805312Y-114115752D02*
X75757693Y-114210990D01*
X75757693Y-114210990D02*
X75710074Y-114258609D01*
X75710074Y-114258609D02*
X75614836Y-114306228D01*
X75614836Y-114306228D02*
X75233884Y-114306228D01*
X76376741Y-114782419D02*
X76281503Y-114734800D01*
X76281503Y-114734800D02*
X76233884Y-114687180D01*
X76233884Y-114687180D02*
X76186265Y-114591942D01*
X76186265Y-114591942D02*
X76186265Y-114306228D01*
X76186265Y-114306228D02*
X76233884Y-114210990D01*
X76233884Y-114210990D02*
X76281503Y-114163371D01*
X76281503Y-114163371D02*
X76376741Y-114115752D01*
X76376741Y-114115752D02*
X76519598Y-114115752D01*
X76519598Y-114115752D02*
X76614836Y-114163371D01*
X76614836Y-114163371D02*
X76662455Y-114210990D01*
X76662455Y-114210990D02*
X76710074Y-114306228D01*
X76710074Y-114306228D02*
X76710074Y-114591942D01*
X76710074Y-114591942D02*
X76662455Y-114687180D01*
X76662455Y-114687180D02*
X76614836Y-114734800D01*
X76614836Y-114734800D02*
X76519598Y-114782419D01*
X76519598Y-114782419D02*
X76376741Y-114782419D01*
X77043408Y-114115752D02*
X77233884Y-114782419D01*
X77233884Y-114782419D02*
X77424360Y-114306228D01*
X77424360Y-114306228D02*
X77614836Y-114782419D01*
X77614836Y-114782419D02*
X77805312Y-114115752D01*
X78567217Y-114734800D02*
X78471979Y-114782419D01*
X78471979Y-114782419D02*
X78281503Y-114782419D01*
X78281503Y-114782419D02*
X78186265Y-114734800D01*
X78186265Y-114734800D02*
X78138646Y-114639561D01*
X78138646Y-114639561D02*
X78138646Y-114258609D01*
X78138646Y-114258609D02*
X78186265Y-114163371D01*
X78186265Y-114163371D02*
X78281503Y-114115752D01*
X78281503Y-114115752D02*
X78471979Y-114115752D01*
X78471979Y-114115752D02*
X78567217Y-114163371D01*
X78567217Y-114163371D02*
X78614836Y-114258609D01*
X78614836Y-114258609D02*
X78614836Y-114353847D01*
X78614836Y-114353847D02*
X78138646Y-114449085D01*
X79043408Y-114782419D02*
X79043408Y-114115752D01*
X79043408Y-114306228D02*
X79091027Y-114210990D01*
X79091027Y-114210990D02*
X79138646Y-114163371D01*
X79138646Y-114163371D02*
X79233884Y-114115752D01*
X79233884Y-114115752D02*
X79329122Y-114115752D01*
D12*
X79626666Y-99404819D02*
X79626666Y-100119104D01*
X79626666Y-100119104D02*
X79579047Y-100261961D01*
X79579047Y-100261961D02*
X79483809Y-100357200D01*
X79483809Y-100357200D02*
X79340952Y-100404819D01*
X79340952Y-100404819D02*
X79245714Y-100404819D01*
X80626666Y-100404819D02*
X80055238Y-100404819D01*
X80340952Y-100404819D02*
X80340952Y-99404819D01*
X80340952Y-99404819D02*
X80245714Y-99547676D01*
X80245714Y-99547676D02*
X80150476Y-99642914D01*
X80150476Y-99642914D02*
X80055238Y-99690533D01*
X80241666Y-110444819D02*
X80241666Y-111159104D01*
X80241666Y-111159104D02*
X80194047Y-111301961D01*
X80194047Y-111301961D02*
X80098809Y-111397200D01*
X80098809Y-111397200D02*
X79955952Y-111444819D01*
X79955952Y-111444819D02*
X79860714Y-111444819D01*
X81146428Y-110444819D02*
X80955952Y-110444819D01*
X80955952Y-110444819D02*
X80860714Y-110492438D01*
X80860714Y-110492438D02*
X80813095Y-110540057D01*
X80813095Y-110540057D02*
X80717857Y-110682914D01*
X80717857Y-110682914D02*
X80670238Y-110873390D01*
X80670238Y-110873390D02*
X80670238Y-111254342D01*
X80670238Y-111254342D02*
X80717857Y-111349580D01*
X80717857Y-111349580D02*
X80765476Y-111397200D01*
X80765476Y-111397200D02*
X80860714Y-111444819D01*
X80860714Y-111444819D02*
X81051190Y-111444819D01*
X81051190Y-111444819D02*
X81146428Y-111397200D01*
X81146428Y-111397200D02*
X81194047Y-111349580D01*
X81194047Y-111349580D02*
X81241666Y-111254342D01*
X81241666Y-111254342D02*
X81241666Y-111016247D01*
X81241666Y-111016247D02*
X81194047Y-110921009D01*
X81194047Y-110921009D02*
X81146428Y-110873390D01*
X81146428Y-110873390D02*
X81051190Y-110825771D01*
X81051190Y-110825771D02*
X80860714Y-110825771D01*
X80860714Y-110825771D02*
X80765476Y-110873390D01*
X80765476Y-110873390D02*
X80717857Y-110921009D01*
X80717857Y-110921009D02*
X80670238Y-111016247D01*
X79756666Y-76674819D02*
X79756666Y-77389104D01*
X79756666Y-77389104D02*
X79709047Y-77531961D01*
X79709047Y-77531961D02*
X79613809Y-77627200D01*
X79613809Y-77627200D02*
X79470952Y-77674819D01*
X79470952Y-77674819D02*
X79375714Y-77674819D01*
X80185238Y-76770057D02*
X80232857Y-76722438D01*
X80232857Y-76722438D02*
X80328095Y-76674819D01*
X80328095Y-76674819D02*
X80566190Y-76674819D01*
X80566190Y-76674819D02*
X80661428Y-76722438D01*
X80661428Y-76722438D02*
X80709047Y-76770057D01*
X80709047Y-76770057D02*
X80756666Y-76865295D01*
X80756666Y-76865295D02*
X80756666Y-76960533D01*
X80756666Y-76960533D02*
X80709047Y-77103390D01*
X80709047Y-77103390D02*
X80137619Y-77674819D01*
X80137619Y-77674819D02*
X80756666Y-77674819D01*
X131936666Y-81854819D02*
X131936666Y-82569104D01*
X131936666Y-82569104D02*
X131889047Y-82711961D01*
X131889047Y-82711961D02*
X131793809Y-82807200D01*
X131793809Y-82807200D02*
X131650952Y-82854819D01*
X131650952Y-82854819D02*
X131555714Y-82854819D01*
X132841428Y-82188152D02*
X132841428Y-82854819D01*
X132603333Y-81807200D02*
X132365238Y-82521485D01*
X132365238Y-82521485D02*
X132984285Y-82521485D01*
X106714819Y-118913333D02*
X107429104Y-118913333D01*
X107429104Y-118913333D02*
X107571961Y-118960952D01*
X107571961Y-118960952D02*
X107667200Y-119056190D01*
X107667200Y-119056190D02*
X107714819Y-119199047D01*
X107714819Y-119199047D02*
X107714819Y-119294285D01*
X106714819Y-118532380D02*
X106714819Y-117913333D01*
X106714819Y-117913333D02*
X107095771Y-118246666D01*
X107095771Y-118246666D02*
X107095771Y-118103809D01*
X107095771Y-118103809D02*
X107143390Y-118008571D01*
X107143390Y-118008571D02*
X107191009Y-117960952D01*
X107191009Y-117960952D02*
X107286247Y-117913333D01*
X107286247Y-117913333D02*
X107524342Y-117913333D01*
X107524342Y-117913333D02*
X107619580Y-117960952D01*
X107619580Y-117960952D02*
X107667200Y-118008571D01*
X107667200Y-118008571D02*
X107714819Y-118103809D01*
X107714819Y-118103809D02*
X107714819Y-118389523D01*
X107714819Y-118389523D02*
X107667200Y-118484761D01*
X107667200Y-118484761D02*
X107619580Y-118532380D01*
X74686666Y-110504819D02*
X74686666Y-111219104D01*
X74686666Y-111219104D02*
X74639047Y-111361961D01*
X74639047Y-111361961D02*
X74543809Y-111457200D01*
X74543809Y-111457200D02*
X74400952Y-111504819D01*
X74400952Y-111504819D02*
X74305714Y-111504819D01*
X75639047Y-110504819D02*
X75162857Y-110504819D01*
X75162857Y-110504819D02*
X75115238Y-110981009D01*
X75115238Y-110981009D02*
X75162857Y-110933390D01*
X75162857Y-110933390D02*
X75258095Y-110885771D01*
X75258095Y-110885771D02*
X75496190Y-110885771D01*
X75496190Y-110885771D02*
X75591428Y-110933390D01*
X75591428Y-110933390D02*
X75639047Y-110981009D01*
X75639047Y-110981009D02*
X75686666Y-111076247D01*
X75686666Y-111076247D02*
X75686666Y-111314342D01*
X75686666Y-111314342D02*
X75639047Y-111409580D01*
X75639047Y-111409580D02*
X75591428Y-111457200D01*
X75591428Y-111457200D02*
X75496190Y-111504819D01*
X75496190Y-111504819D02*
X75258095Y-111504819D01*
X75258095Y-111504819D02*
X75162857Y-111457200D01*
X75162857Y-111457200D02*
X75115238Y-111409580D01*
X97201666Y-112824819D02*
X97201666Y-113539104D01*
X97201666Y-113539104D02*
X97154047Y-113681961D01*
X97154047Y-113681961D02*
X97058809Y-113777200D01*
X97058809Y-113777200D02*
X96915952Y-113824819D01*
X96915952Y-113824819D02*
X96820714Y-113824819D01*
X97582619Y-112824819D02*
X98249285Y-112824819D01*
X98249285Y-112824819D02*
X97820714Y-113824819D01*
X97111666Y-118854819D02*
X97111666Y-119569104D01*
X97111666Y-119569104D02*
X97064047Y-119711961D01*
X97064047Y-119711961D02*
X96968809Y-119807200D01*
X96968809Y-119807200D02*
X96825952Y-119854819D01*
X96825952Y-119854819D02*
X96730714Y-119854819D01*
X97730714Y-119283390D02*
X97635476Y-119235771D01*
X97635476Y-119235771D02*
X97587857Y-119188152D01*
X97587857Y-119188152D02*
X97540238Y-119092914D01*
X97540238Y-119092914D02*
X97540238Y-119045295D01*
X97540238Y-119045295D02*
X97587857Y-118950057D01*
X97587857Y-118950057D02*
X97635476Y-118902438D01*
X97635476Y-118902438D02*
X97730714Y-118854819D01*
X97730714Y-118854819D02*
X97921190Y-118854819D01*
X97921190Y-118854819D02*
X98016428Y-118902438D01*
X98016428Y-118902438D02*
X98064047Y-118950057D01*
X98064047Y-118950057D02*
X98111666Y-119045295D01*
X98111666Y-119045295D02*
X98111666Y-119092914D01*
X98111666Y-119092914D02*
X98064047Y-119188152D01*
X98064047Y-119188152D02*
X98016428Y-119235771D01*
X98016428Y-119235771D02*
X97921190Y-119283390D01*
X97921190Y-119283390D02*
X97730714Y-119283390D01*
X97730714Y-119283390D02*
X97635476Y-119331009D01*
X97635476Y-119331009D02*
X97587857Y-119378628D01*
X97587857Y-119378628D02*
X97540238Y-119473866D01*
X97540238Y-119473866D02*
X97540238Y-119664342D01*
X97540238Y-119664342D02*
X97587857Y-119759580D01*
X97587857Y-119759580D02*
X97635476Y-119807200D01*
X97635476Y-119807200D02*
X97730714Y-119854819D01*
X97730714Y-119854819D02*
X97921190Y-119854819D01*
X97921190Y-119854819D02*
X98016428Y-119807200D01*
X98016428Y-119807200D02*
X98064047Y-119759580D01*
X98064047Y-119759580D02*
X98111666Y-119664342D01*
X98111666Y-119664342D02*
X98111666Y-119473866D01*
X98111666Y-119473866D02*
X98064047Y-119378628D01*
X98064047Y-119378628D02*
X98016428Y-119331009D01*
X98016428Y-119331009D02*
X97921190Y-119283390D01*
D13*
%TO.C,J1*%
X78670000Y-104190000D02*
X78670000Y-102860000D01*
X80000000Y-104190000D02*
X78670000Y-104190000D01*
X81270000Y-101530000D02*
X127050000Y-101530000D01*
X81270000Y-104190000D02*
X81270000Y-101530000D01*
X81270000Y-104190000D02*
X127050000Y-104190000D01*
X127050000Y-104190000D02*
X127050000Y-101530000D01*
%TO.C,J6*%
X79345000Y-106530000D02*
X80675000Y-106530000D01*
X79345000Y-107860000D02*
X79345000Y-106530000D01*
X79345000Y-109130000D02*
X79345000Y-109190000D01*
X79345000Y-109130000D02*
X82005000Y-109130000D01*
X79345000Y-109190000D02*
X82005000Y-109190000D01*
X82005000Y-109130000D02*
X82005000Y-109190000D01*
%TO.C,J2*%
X78670000Y-81330000D02*
X78670000Y-80000000D01*
X80000000Y-81330000D02*
X78670000Y-81330000D01*
X81270000Y-78670000D02*
X127050000Y-78670000D01*
X81270000Y-81330000D02*
X81270000Y-78670000D01*
X81270000Y-81330000D02*
X127050000Y-81330000D01*
X127050000Y-81330000D02*
X127050000Y-78670000D01*
%TO.C,J4*%
X133870000Y-81090000D02*
X135200000Y-81090000D01*
X133870000Y-82420000D02*
X133870000Y-81090000D01*
X133870000Y-83690000D02*
X133870000Y-104070000D01*
X133870000Y-83690000D02*
X136530000Y-83690000D01*
X133870000Y-104070000D02*
X136530000Y-104070000D01*
X136530000Y-83690000D02*
X136530000Y-104070000D01*
%TO.C,J3*%
X108980000Y-119910000D02*
X108980000Y-118580000D01*
X110310000Y-119910000D02*
X108980000Y-119910000D01*
X111580000Y-117250000D02*
X116720000Y-117250000D01*
X111580000Y-119910000D02*
X111580000Y-117250000D01*
X111580000Y-119910000D02*
X116720000Y-119910000D01*
X116720000Y-119910000D02*
X116720000Y-117250000D01*
%TO.C,J5*%
X73670000Y-106530000D02*
X75000000Y-106530000D01*
X73670000Y-107860000D02*
X73670000Y-106530000D01*
X73670000Y-109130000D02*
X73670000Y-109190000D01*
X73670000Y-109130000D02*
X76330000Y-109130000D01*
X73670000Y-109190000D02*
X76330000Y-109190000D01*
X76330000Y-109130000D02*
X76330000Y-109190000D01*
%TO.C,J7*%
X93095000Y-112030000D02*
X94425000Y-112030000D01*
X93095000Y-113360000D02*
X93095000Y-112030000D01*
X93095000Y-114630000D02*
X93095000Y-114690000D01*
X93095000Y-114630000D02*
X95755000Y-114630000D01*
X93095000Y-114690000D02*
X95755000Y-114690000D01*
X95755000Y-114630000D02*
X95755000Y-114690000D01*
%TO.C,J8*%
X93095000Y-118070000D02*
X94425000Y-118070000D01*
X93095000Y-119400000D02*
X93095000Y-118070000D01*
X93095000Y-120670000D02*
X93095000Y-120730000D01*
X93095000Y-120670000D02*
X95755000Y-120670000D01*
X93095000Y-120730000D02*
X95755000Y-120730000D01*
X95755000Y-120670000D02*
X95755000Y-120730000D01*
%TD*%
M02*
