%TF.GenerationSoftware,KiCad,Pcbnew,8.0.4*%
%TF.CreationDate,2026-01-14T17:00:29-06:00*%
%TF.ProjectId,PCB,5043422e-6b69-4636-9164-5f7063625858,rev?*%
%TF.SameCoordinates,Original*%
%TF.FileFunction,Copper,L1,Top*%
%TF.FilePolarity,Positive*%
%FSLAX46Y46*%
G04 Gerber Fmt 4.6, Leading zero omitted, Abs format (unit mm)*
G04 Created by KiCad (PCBNEW 8.0.4) date 2026-01-14 17:00:29*
%MOMM*%
%LPD*%
G01*
G04 APERTURE LIST*
%TA.AperFunction,ComponentPad*%
%ADD10R,1.700000X1.700000*%
%TD*%
%TA.AperFunction,ComponentPad*%
%ADD11O,1.700000X1.700000*%
%TD*%
%TA.AperFunction,ViaPad*%
%ADD12C,0.700000*%
%TD*%
%TA.AperFunction,Conductor*%
%ADD13C,0.500000*%
%TD*%
%TA.AperFunction,Conductor*%
%ADD14C,0.300000*%
%TD*%
G04 APERTURE END LIST*
D10*
%TO.P,J1,1,Pin_1*%
%TO.N,3.3V*%
X80000000Y-102860000D03*
D11*
%TO.P,J1,2,Pin_2*%
%TO.N,EN*%
X82540000Y-102860000D03*
%TO.P,J1,3,Pin_3*%
%TO.N,36*%
X85080000Y-102860000D03*
%TO.P,J1,4,Pin_4*%
%TO.N,39*%
X87620000Y-102860000D03*
%TO.P,J1,5,Pin_5*%
%TO.N,34*%
X90160000Y-102860000D03*
%TO.P,J1,6,Pin_6*%
%TO.N,35*%
X92700000Y-102860000D03*
%TO.P,J1,7,Pin_7*%
%TO.N,32*%
X95240000Y-102860000D03*
%TO.P,J1,8,Pin_8*%
%TO.N,33*%
X97780000Y-102860000D03*
%TO.P,J1,9,Pin_9*%
%TO.N,25*%
X100320000Y-102860000D03*
%TO.P,J1,10,Pin_10*%
%TO.N,26*%
X102860000Y-102860000D03*
%TO.P,J1,11,Pin_11*%
%TO.N,27*%
X105400000Y-102860000D03*
%TO.P,J1,12,Pin_12*%
%TO.N,14*%
X107940000Y-102860000D03*
%TO.P,J1,13,Pin_13*%
%TO.N,12*%
X110480000Y-102860000D03*
%TO.P,J1,14,Pin_14*%
%TO.N,GND*%
X113020000Y-102860000D03*
%TO.P,J1,15,Pin_15*%
%TO.N,13*%
X115560000Y-102860000D03*
%TO.P,J1,16,Pin_16*%
%TO.N,9*%
X118100000Y-102860000D03*
%TO.P,J1,17,Pin_17*%
%TO.N,10*%
X120640000Y-102860000D03*
%TO.P,J1,18,Pin_18*%
%TO.N,11*%
X123180000Y-102860000D03*
%TO.P,J1,19,Pin_19*%
%TO.N,5V*%
X125720000Y-102860000D03*
%TD*%
D10*
%TO.P,J6,1,Pin_1*%
%TO.N,5V*%
X80675000Y-107860000D03*
%TD*%
%TO.P,J2,1,Pin_1*%
%TO.N,GND*%
X80000000Y-80000000D03*
D11*
%TO.P,J2,2,Pin_2*%
%TO.N,23*%
X82540000Y-80000000D03*
%TO.P,J2,3,Pin_3*%
%TO.N,22*%
X85080000Y-80000000D03*
%TO.P,J2,4,Pin_4*%
%TO.N,1*%
X87620000Y-80000000D03*
%TO.P,J2,5,Pin_5*%
%TO.N,3*%
X90160000Y-80000000D03*
%TO.P,J2,6,Pin_6*%
%TO.N,21*%
X92700000Y-80000000D03*
%TO.P,J2,7,Pin_7*%
%TO.N,GND*%
X95240000Y-80000000D03*
%TO.P,J2,8,Pin_8*%
%TO.N,19*%
X97780000Y-80000000D03*
%TO.P,J2,9,Pin_9*%
%TO.N,18*%
X100320000Y-80000000D03*
%TO.P,J2,10,Pin_10*%
%TO.N,5*%
X102860000Y-80000000D03*
%TO.P,J2,11,Pin_11*%
%TO.N,17*%
X105400000Y-80000000D03*
%TO.P,J2,12,Pin_12*%
%TO.N,16*%
X107940000Y-80000000D03*
%TO.P,J2,13,Pin_13*%
%TO.N,4*%
X110480000Y-80000000D03*
%TO.P,J2,14,Pin_14*%
%TO.N,0*%
X113020000Y-80000000D03*
%TO.P,J2,15,Pin_15*%
%TO.N,2*%
X115560000Y-80000000D03*
%TO.P,J2,16,Pin_16*%
%TO.N,15*%
X118100000Y-80000000D03*
%TO.P,J2,17,Pin_17*%
%TO.N,8*%
X120640000Y-80000000D03*
%TO.P,J2,18,Pin_18*%
%TO.N,7*%
X123180000Y-80000000D03*
%TO.P,J2,19,Pin_19*%
%TO.N,6*%
X125720000Y-80000000D03*
%TD*%
D10*
%TO.P,J4,1,Pin_1*%
%TO.N,39*%
X135200000Y-82420000D03*
D11*
%TO.P,J4,2,Pin_2*%
%TO.N,34*%
X135200000Y-84960000D03*
%TO.P,J4,3,Pin_3*%
%TO.N,35*%
X135200000Y-87500000D03*
%TO.P,J4,4,Pin_4*%
%TO.N,32*%
X135200000Y-90040000D03*
%TO.P,J4,5,Pin_5*%
%TO.N,33*%
X135200000Y-92580000D03*
%TO.P,J4,6,Pin_6*%
%TO.N,27*%
X135200000Y-95120000D03*
%TO.P,J4,7,Pin_7*%
%TO.N,14*%
X135200000Y-97660000D03*
%TO.P,J4,8,Pin_8*%
%TO.N,GND*%
X135200000Y-100200000D03*
%TO.P,J4,9,Pin_9*%
%TO.N,5V*%
X135200000Y-102740000D03*
%TD*%
D10*
%TO.P,J3,1,Pin_1*%
%TO.N,13*%
X110310000Y-118580000D03*
D11*
%TO.P,J3,2,Pin_2*%
%TO.N,GND*%
X112850000Y-118580000D03*
%TO.P,J3,3,Pin_3*%
%TO.N,5V*%
X115390000Y-118580000D03*
%TD*%
D10*
%TO.P,J5,1,Pin_1*%
%TO.N,GND*%
X75000000Y-107860000D03*
%TD*%
%TO.P,J7,1,Pin_1*%
%TO.N,B_GND*%
X94425000Y-113360000D03*
%TD*%
%TO.P,J8,1,Pin_1*%
%TO.N,B_5V*%
X94425000Y-119400000D03*
%TD*%
D12*
%TO.N,13*%
X113150000Y-108090000D03*
X111670000Y-109480000D03*
%TO.N,GND*%
X80280000Y-82460000D03*
X95310000Y-82460000D03*
X112850000Y-116100000D03*
X75060000Y-105280000D03*
X113800000Y-100390000D03*
X132400000Y-100240000D03*
%TD*%
D13*
%TO.N,5V*%
X80675000Y-107860000D02*
X111580000Y-107860000D01*
D14*
%TO.N,13*%
X115520000Y-105720000D02*
X115560000Y-105720000D01*
X113150000Y-108090000D02*
X115520000Y-105720000D01*
X110310000Y-110970000D02*
X110310000Y-118580000D01*
X110310000Y-110970000D02*
X111620000Y-109660000D01*
X111620000Y-109660000D02*
X111620000Y-109550000D01*
X111670000Y-109500000D02*
X111670000Y-109480000D01*
X115560000Y-102860000D02*
X115560000Y-105720000D01*
X111620000Y-109550000D02*
X111670000Y-109500000D01*
%TO.N,32*%
X108060000Y-90040000D02*
X95240000Y-102860000D01*
X135200000Y-90040000D02*
X108060000Y-90040000D01*
%TO.N,35*%
X108060000Y-87500000D02*
X92700000Y-102860000D01*
X135200000Y-87500000D02*
X108060000Y-87500000D01*
D13*
%TO.N,GND*%
X95240000Y-82200000D02*
X95240000Y-80000000D01*
X80000000Y-82140000D02*
X80280000Y-82420000D01*
X113020000Y-102860000D02*
X113020000Y-101300000D01*
X95240000Y-82200000D02*
X95240000Y-82390000D01*
X75000000Y-107860000D02*
X75000000Y-105340000D01*
X132720000Y-100240000D02*
X132400000Y-100240000D01*
X95240000Y-82390000D02*
X95310000Y-82460000D01*
X135200000Y-100200000D02*
X132760000Y-100200000D01*
X80280000Y-82420000D02*
X80280000Y-82460000D01*
X112850000Y-116170000D02*
X112850000Y-116100000D01*
X132760000Y-100200000D02*
X132750000Y-100190000D01*
X113020000Y-101300000D02*
X113800000Y-100520000D01*
X132760000Y-100200000D02*
X132720000Y-100240000D01*
X75000000Y-105340000D02*
X75060000Y-105280000D01*
X80000000Y-80000000D02*
X80000000Y-82140000D01*
X113800000Y-100520000D02*
X113800000Y-100390000D01*
X112850000Y-118580000D02*
X112850000Y-116170000D01*
D14*
%TO.N,33*%
X135200000Y-92580000D02*
X108060000Y-92580000D01*
X108060000Y-92580000D02*
X97780000Y-102860000D01*
%TO.N,39*%
X108060000Y-82420000D02*
X87620000Y-102860000D01*
X135200000Y-82420000D02*
X108060000Y-82420000D01*
%TO.N,14*%
X135200000Y-97660000D02*
X113140000Y-97660000D01*
X113140000Y-97660000D02*
X107940000Y-102860000D01*
D13*
%TO.N,5V*%
X115390000Y-118580000D02*
X115390000Y-115201472D01*
X125840000Y-102740000D02*
X125720000Y-102860000D01*
X115390000Y-115201472D02*
X115410000Y-115181472D01*
X115410000Y-111780000D02*
X111680000Y-108050000D01*
X115410000Y-115181472D02*
X115410000Y-111780000D01*
X135200000Y-102740000D02*
X125840000Y-102740000D01*
X111680000Y-107960000D02*
X111580000Y-107860000D01*
X111680000Y-108050000D02*
X111680000Y-107960000D01*
X125720000Y-108250000D02*
X115390000Y-118580000D01*
X125720000Y-102860000D02*
X125720000Y-108250000D01*
D14*
%TO.N,27*%
X135200000Y-95120000D02*
X113140000Y-95120000D01*
X113140000Y-95120000D02*
X105400000Y-102860000D01*
%TO.N,34*%
X135200000Y-84960000D02*
X108060000Y-84960000D01*
X108060000Y-84960000D02*
X90160000Y-102860000D01*
%TD*%
M02*
