%TF.GenerationSoftware,KiCad,Pcbnew,8.0.4*%
%TF.CreationDate,2026-01-14T17:00:29-06:00*%
%TF.ProjectId,PCB,5043422e-6b69-4636-9164-5f7063625858,rev?*%
%TF.SameCoordinates,Original*%
%TF.FileFunction,Copper,L2,Bot*%
%TF.FilePolarity,Positive*%
%FSLAX46Y46*%
G04 Gerber Fmt 4.6, Leading zero omitted, Abs format (unit mm)*
G04 Created by KiCad (PCBNEW 8.0.4) date 2026-01-14 17:00:29*
%MOMM*%
%LPD*%
G01*
G04 APERTURE LIST*
%TA.AperFunction,ComponentPad*%
%ADD10R,1.700000X1.700000*%
%TD*%
%TA.AperFunction,ComponentPad*%
%ADD11O,1.700000X1.700000*%
%TD*%
%TA.AperFunction,ViaPad*%
%ADD12C,0.700000*%
%TD*%
%TA.AperFunction,Conductor*%
%ADD13C,0.300000*%
%TD*%
G04 APERTURE END LIST*
D10*
%TO.P,J1,1,Pin_1*%
%TO.N,3.3V*%
X80000000Y-102860000D03*
D11*
%TO.P,J1,2,Pin_2*%
%TO.N,EN*%
X82540000Y-102860000D03*
%TO.P,J1,3,Pin_3*%
%TO.N,36*%
X85080000Y-102860000D03*
%TO.P,J1,4,Pin_4*%
%TO.N,39*%
X87620000Y-102860000D03*
%TO.P,J1,5,Pin_5*%
%TO.N,34*%
X90160000Y-102860000D03*
%TO.P,J1,6,Pin_6*%
%TO.N,35*%
X92700000Y-102860000D03*
%TO.P,J1,7,Pin_7*%
%TO.N,32*%
X95240000Y-102860000D03*
%TO.P,J1,8,Pin_8*%
%TO.N,33*%
X97780000Y-102860000D03*
%TO.P,J1,9,Pin_9*%
%TO.N,25*%
X100320000Y-102860000D03*
%TO.P,J1,10,Pin_10*%
%TO.N,26*%
X102860000Y-102860000D03*
%TO.P,J1,11,Pin_11*%
%TO.N,27*%
X105400000Y-102860000D03*
%TO.P,J1,12,Pin_12*%
%TO.N,14*%
X107940000Y-102860000D03*
%TO.P,J1,13,Pin_13*%
%TO.N,12*%
X110480000Y-102860000D03*
%TO.P,J1,14,Pin_14*%
%TO.N,GND*%
X113020000Y-102860000D03*
%TO.P,J1,15,Pin_15*%
%TO.N,13*%
X115560000Y-102860000D03*
%TO.P,J1,16,Pin_16*%
%TO.N,9*%
X118100000Y-102860000D03*
%TO.P,J1,17,Pin_17*%
%TO.N,10*%
X120640000Y-102860000D03*
%TO.P,J1,18,Pin_18*%
%TO.N,11*%
X123180000Y-102860000D03*
%TO.P,J1,19,Pin_19*%
%TO.N,5V*%
X125720000Y-102860000D03*
%TD*%
D10*
%TO.P,J6,1,Pin_1*%
%TO.N,5V*%
X80675000Y-107860000D03*
%TD*%
%TO.P,J2,1,Pin_1*%
%TO.N,GND*%
X80000000Y-80000000D03*
D11*
%TO.P,J2,2,Pin_2*%
%TO.N,23*%
X82540000Y-80000000D03*
%TO.P,J2,3,Pin_3*%
%TO.N,22*%
X85080000Y-80000000D03*
%TO.P,J2,4,Pin_4*%
%TO.N,1*%
X87620000Y-80000000D03*
%TO.P,J2,5,Pin_5*%
%TO.N,3*%
X90160000Y-80000000D03*
%TO.P,J2,6,Pin_6*%
%TO.N,21*%
X92700000Y-80000000D03*
%TO.P,J2,7,Pin_7*%
%TO.N,GND*%
X95240000Y-80000000D03*
%TO.P,J2,8,Pin_8*%
%TO.N,19*%
X97780000Y-80000000D03*
%TO.P,J2,9,Pin_9*%
%TO.N,18*%
X100320000Y-80000000D03*
%TO.P,J2,10,Pin_10*%
%TO.N,5*%
X102860000Y-80000000D03*
%TO.P,J2,11,Pin_11*%
%TO.N,17*%
X105400000Y-80000000D03*
%TO.P,J2,12,Pin_12*%
%TO.N,16*%
X107940000Y-80000000D03*
%TO.P,J2,13,Pin_13*%
%TO.N,4*%
X110480000Y-80000000D03*
%TO.P,J2,14,Pin_14*%
%TO.N,0*%
X113020000Y-80000000D03*
%TO.P,J2,15,Pin_15*%
%TO.N,2*%
X115560000Y-80000000D03*
%TO.P,J2,16,Pin_16*%
%TO.N,15*%
X118100000Y-80000000D03*
%TO.P,J2,17,Pin_17*%
%TO.N,8*%
X120640000Y-80000000D03*
%TO.P,J2,18,Pin_18*%
%TO.N,7*%
X123180000Y-80000000D03*
%TO.P,J2,19,Pin_19*%
%TO.N,6*%
X125720000Y-80000000D03*
%TD*%
D10*
%TO.P,J4,1,Pin_1*%
%TO.N,39*%
X135200000Y-82420000D03*
D11*
%TO.P,J4,2,Pin_2*%
%TO.N,34*%
X135200000Y-84960000D03*
%TO.P,J4,3,Pin_3*%
%TO.N,35*%
X135200000Y-87500000D03*
%TO.P,J4,4,Pin_4*%
%TO.N,32*%
X135200000Y-90040000D03*
%TO.P,J4,5,Pin_5*%
%TO.N,33*%
X135200000Y-92580000D03*
%TO.P,J4,6,Pin_6*%
%TO.N,27*%
X135200000Y-95120000D03*
%TO.P,J4,7,Pin_7*%
%TO.N,14*%
X135200000Y-97660000D03*
%TO.P,J4,8,Pin_8*%
%TO.N,GND*%
X135200000Y-100200000D03*
%TO.P,J4,9,Pin_9*%
%TO.N,5V*%
X135200000Y-102740000D03*
%TD*%
D10*
%TO.P,J3,1,Pin_1*%
%TO.N,13*%
X110310000Y-118580000D03*
D11*
%TO.P,J3,2,Pin_2*%
%TO.N,GND*%
X112850000Y-118580000D03*
%TO.P,J3,3,Pin_3*%
%TO.N,5V*%
X115390000Y-118580000D03*
%TD*%
D10*
%TO.P,J5,1,Pin_1*%
%TO.N,GND*%
X75000000Y-107860000D03*
%TD*%
%TO.P,J7,1,Pin_1*%
%TO.N,B_GND*%
X94425000Y-113360000D03*
%TD*%
%TO.P,J8,1,Pin_1*%
%TO.N,B_5V*%
X94425000Y-119400000D03*
%TD*%
D12*
%TO.N,13*%
X113150000Y-108090000D03*
X111670000Y-109480000D03*
%TO.N,GND*%
X80280000Y-82460000D03*
X95310000Y-82460000D03*
X112850000Y-116100000D03*
X75060000Y-105280000D03*
X113800000Y-100390000D03*
X132400000Y-100240000D03*
%TD*%
D13*
%TO.N,13*%
X111670000Y-109480000D02*
X111760000Y-109480000D01*
X111760000Y-109480000D02*
X113150000Y-108090000D01*
%TD*%
%TA.AperFunction,Conductor*%
%TO.N,GND*%
G36*
X135700855Y-72990011D02*
G01*
X135862269Y-72992274D01*
X135874390Y-72993041D01*
X136178553Y-73027312D01*
X136195992Y-73029277D01*
X136209700Y-73031606D01*
X136524366Y-73103426D01*
X136537725Y-73107273D01*
X136842392Y-73213881D01*
X136855228Y-73219199D01*
X137146025Y-73359239D01*
X137158195Y-73365965D01*
X137431486Y-73537685D01*
X137442827Y-73545732D01*
X137695173Y-73746971D01*
X137705541Y-73756237D01*
X137933762Y-73984458D01*
X137943028Y-73994826D01*
X138144267Y-74247172D01*
X138152314Y-74258513D01*
X138324034Y-74531804D01*
X138330760Y-74543974D01*
X138470798Y-74834766D01*
X138476120Y-74847613D01*
X138582724Y-75152270D01*
X138586573Y-75165633D01*
X138658393Y-75480299D01*
X138660722Y-75494007D01*
X138696957Y-75815597D01*
X138697725Y-75827743D01*
X138699988Y-75989144D01*
X138700000Y-75990882D01*
X138700000Y-129999117D01*
X138699988Y-130000855D01*
X138697725Y-130162256D01*
X138696957Y-130174402D01*
X138660722Y-130495992D01*
X138658393Y-130509700D01*
X138586573Y-130824366D01*
X138582724Y-130837729D01*
X138476120Y-131142386D01*
X138470798Y-131155233D01*
X138330760Y-131446025D01*
X138324034Y-131458195D01*
X138152314Y-131731486D01*
X138144267Y-131742827D01*
X137943028Y-131995173D01*
X137933762Y-132005541D01*
X137705541Y-132233762D01*
X137695173Y-132243028D01*
X137442827Y-132444267D01*
X137431486Y-132452314D01*
X137158195Y-132624034D01*
X137146025Y-132630760D01*
X136855233Y-132770798D01*
X136842386Y-132776120D01*
X136537729Y-132882724D01*
X136524366Y-132886573D01*
X136209700Y-132958393D01*
X136195992Y-132960722D01*
X135874402Y-132996957D01*
X135862256Y-132997725D01*
X135700856Y-132999988D01*
X135699118Y-133000000D01*
X75700882Y-133000000D01*
X75699144Y-132999988D01*
X75537743Y-132997725D01*
X75525597Y-132996957D01*
X75204007Y-132960722D01*
X75190299Y-132958393D01*
X74875633Y-132886573D01*
X74862270Y-132882724D01*
X74557613Y-132776120D01*
X74544766Y-132770798D01*
X74253974Y-132630760D01*
X74241804Y-132624034D01*
X73968513Y-132452314D01*
X73957172Y-132444267D01*
X73704826Y-132243028D01*
X73694458Y-132233762D01*
X73466237Y-132005541D01*
X73456971Y-131995173D01*
X73255732Y-131742827D01*
X73247685Y-131731486D01*
X73075965Y-131458195D01*
X73069239Y-131446025D01*
X73023237Y-131350500D01*
X72929199Y-131155228D01*
X72923879Y-131142386D01*
X72831991Y-130879786D01*
X72817273Y-130837725D01*
X72813426Y-130824366D01*
X72741606Y-130509700D01*
X72739277Y-130495992D01*
X72737312Y-130478553D01*
X72703041Y-130174390D01*
X72702274Y-130162269D01*
X72700012Y-130000855D01*
X72700000Y-129999117D01*
X72700000Y-129893713D01*
X74309500Y-129893713D01*
X74309500Y-130106287D01*
X74342754Y-130316243D01*
X74405612Y-130509700D01*
X74408444Y-130518414D01*
X74504951Y-130707820D01*
X74629890Y-130879786D01*
X74780213Y-131030109D01*
X74952179Y-131155048D01*
X74952181Y-131155049D01*
X74952184Y-131155051D01*
X75141588Y-131251557D01*
X75343757Y-131317246D01*
X75553713Y-131350500D01*
X75553714Y-131350500D01*
X75766286Y-131350500D01*
X75766287Y-131350500D01*
X75976243Y-131317246D01*
X76178412Y-131251557D01*
X76367816Y-131155051D01*
X76389789Y-131139086D01*
X76539786Y-131030109D01*
X76539788Y-131030106D01*
X76539792Y-131030104D01*
X76690104Y-130879792D01*
X76690106Y-130879788D01*
X76690109Y-130879786D01*
X76815048Y-130707820D01*
X76815047Y-130707820D01*
X76815051Y-130707816D01*
X76911557Y-130518412D01*
X76977246Y-130316243D01*
X77010500Y-130106287D01*
X77010500Y-129893713D01*
X134349500Y-129893713D01*
X134349500Y-130106287D01*
X134382754Y-130316243D01*
X134445612Y-130509700D01*
X134448444Y-130518414D01*
X134544951Y-130707820D01*
X134669890Y-130879786D01*
X134820213Y-131030109D01*
X134992179Y-131155048D01*
X134992181Y-131155049D01*
X134992184Y-131155051D01*
X135181588Y-131251557D01*
X135383757Y-131317246D01*
X135593713Y-131350500D01*
X135593714Y-131350500D01*
X135806286Y-131350500D01*
X135806287Y-131350500D01*
X136016243Y-131317246D01*
X136218412Y-131251557D01*
X136407816Y-131155051D01*
X136429789Y-131139086D01*
X136579786Y-131030109D01*
X136579788Y-131030106D01*
X136579792Y-131030104D01*
X136730104Y-130879792D01*
X136730106Y-130879788D01*
X136730109Y-130879786D01*
X136855048Y-130707820D01*
X136855047Y-130707820D01*
X136855051Y-130707816D01*
X136951557Y-130518412D01*
X137017246Y-130316243D01*
X137050500Y-130106287D01*
X137050500Y-129893713D01*
X137017246Y-129683757D01*
X136951557Y-129481588D01*
X136855051Y-129292184D01*
X136855049Y-129292181D01*
X136855048Y-129292179D01*
X136730109Y-129120213D01*
X136579786Y-128969890D01*
X136407820Y-128844951D01*
X136218414Y-128748444D01*
X136218413Y-128748443D01*
X136218412Y-128748443D01*
X136016243Y-128682754D01*
X136016241Y-128682753D01*
X136016240Y-128682753D01*
X135854957Y-128657208D01*
X135806287Y-128649500D01*
X135593713Y-128649500D01*
X135545042Y-128657208D01*
X135383760Y-128682753D01*
X135181585Y-128748444D01*
X134992179Y-128844951D01*
X134820213Y-128969890D01*
X134669890Y-129120213D01*
X134544951Y-129292179D01*
X134448444Y-129481585D01*
X134382753Y-129683760D01*
X134349500Y-129893713D01*
X77010500Y-129893713D01*
X76977246Y-129683757D01*
X76911557Y-129481588D01*
X76815051Y-129292184D01*
X76815049Y-129292181D01*
X76815048Y-129292179D01*
X76690109Y-129120213D01*
X76539786Y-128969890D01*
X76367820Y-128844951D01*
X76178414Y-128748444D01*
X76178413Y-128748443D01*
X76178412Y-128748443D01*
X75976243Y-128682754D01*
X75976241Y-128682753D01*
X75976240Y-128682753D01*
X75814957Y-128657208D01*
X75766287Y-128649500D01*
X75553713Y-128649500D01*
X75505042Y-128657208D01*
X75343760Y-128682753D01*
X75141585Y-128748444D01*
X74952179Y-128844951D01*
X74780213Y-128969890D01*
X74629890Y-129120213D01*
X74504951Y-129292179D01*
X74408444Y-129481585D01*
X74342753Y-129683760D01*
X74309500Y-129893713D01*
X72700000Y-129893713D01*
X72700000Y-118505131D01*
X93274500Y-118505131D01*
X93274500Y-120294856D01*
X93274502Y-120294882D01*
X93277413Y-120319987D01*
X93277415Y-120319991D01*
X93322793Y-120422764D01*
X93322794Y-120422765D01*
X93402235Y-120502206D01*
X93505009Y-120547585D01*
X93530135Y-120550500D01*
X95319864Y-120550499D01*
X95319879Y-120550497D01*
X95319882Y-120550497D01*
X95344987Y-120547586D01*
X95344988Y-120547585D01*
X95344991Y-120547585D01*
X95447765Y-120502206D01*
X95527206Y-120422765D01*
X95572585Y-120319991D01*
X95575500Y-120294865D01*
X95575499Y-118505136D01*
X95575497Y-118505117D01*
X95572586Y-118480012D01*
X95572585Y-118480010D01*
X95572585Y-118480009D01*
X95527206Y-118377235D01*
X95447765Y-118297794D01*
X95391596Y-118272993D01*
X95344992Y-118252415D01*
X95319865Y-118249500D01*
X93530143Y-118249500D01*
X93530117Y-118249502D01*
X93505012Y-118252413D01*
X93505008Y-118252415D01*
X93402235Y-118297793D01*
X93322794Y-118377234D01*
X93277415Y-118480006D01*
X93277415Y-118480008D01*
X93274500Y-118505131D01*
X72700000Y-118505131D01*
X72700000Y-117685131D01*
X109159500Y-117685131D01*
X109159500Y-119474856D01*
X109159502Y-119474882D01*
X109162413Y-119499987D01*
X109162415Y-119499991D01*
X109207793Y-119602764D01*
X109207794Y-119602765D01*
X109287235Y-119682206D01*
X109390009Y-119727585D01*
X109415135Y-119730500D01*
X111204864Y-119730499D01*
X111204879Y-119730497D01*
X111204882Y-119730497D01*
X111229987Y-119727586D01*
X111229988Y-119727585D01*
X111229991Y-119727585D01*
X111332765Y-119682206D01*
X111412206Y-119602765D01*
X111457585Y-119499991D01*
X111460500Y-119474865D01*
X111460499Y-119342516D01*
X111480183Y-119275480D01*
X111532987Y-119229725D01*
X111602145Y-119219781D01*
X111665701Y-119248805D01*
X111686073Y-119271395D01*
X111811890Y-119451078D01*
X111978917Y-119618105D01*
X112172421Y-119753600D01*
X112386507Y-119853429D01*
X112386516Y-119853433D01*
X112600000Y-119910634D01*
X112600000Y-119013012D01*
X112657007Y-119045925D01*
X112784174Y-119080000D01*
X112915826Y-119080000D01*
X113042993Y-119045925D01*
X113100000Y-119013012D01*
X113100000Y-119910633D01*
X113313483Y-119853433D01*
X113313492Y-119853429D01*
X113527578Y-119753600D01*
X113721082Y-119618105D01*
X113888105Y-119451082D01*
X114023600Y-119257578D01*
X114117294Y-119056651D01*
X114163466Y-119004212D01*
X114230660Y-118985060D01*
X114297541Y-119005276D01*
X114340676Y-119053785D01*
X114407632Y-119188253D01*
X114536127Y-119358406D01*
X114536128Y-119358407D01*
X114693698Y-119502052D01*
X114874981Y-119614298D01*
X115073802Y-119691321D01*
X115283390Y-119730500D01*
X115283392Y-119730500D01*
X115496608Y-119730500D01*
X115496610Y-119730500D01*
X115706198Y-119691321D01*
X115905019Y-119614298D01*
X116086302Y-119502052D01*
X116243872Y-119358407D01*
X116372366Y-119188255D01*
X116426270Y-119080000D01*
X116467403Y-118997394D01*
X116467403Y-118997393D01*
X116467405Y-118997389D01*
X116525756Y-118792310D01*
X116545429Y-118580000D01*
X116525756Y-118367690D01*
X116467405Y-118162611D01*
X116467403Y-118162606D01*
X116467403Y-118162605D01*
X116372367Y-117971746D01*
X116243872Y-117801593D01*
X116086302Y-117657948D01*
X115905019Y-117545702D01*
X115905017Y-117545701D01*
X115805608Y-117507190D01*
X115706198Y-117468679D01*
X115496610Y-117429500D01*
X115283390Y-117429500D01*
X115073802Y-117468679D01*
X115073799Y-117468679D01*
X115073799Y-117468680D01*
X114874982Y-117545701D01*
X114874980Y-117545702D01*
X114693699Y-117657947D01*
X114536127Y-117801593D01*
X114407634Y-117971744D01*
X114340676Y-118106215D01*
X114293173Y-118157452D01*
X114225510Y-118174873D01*
X114159170Y-118152947D01*
X114117294Y-118103348D01*
X114023600Y-117902422D01*
X114023599Y-117902420D01*
X113888113Y-117708926D01*
X113888108Y-117708920D01*
X113721082Y-117541894D01*
X113527578Y-117406399D01*
X113313492Y-117306570D01*
X113313486Y-117306567D01*
X113100000Y-117249364D01*
X113100000Y-118146988D01*
X113042993Y-118114075D01*
X112915826Y-118080000D01*
X112784174Y-118080000D01*
X112657007Y-118114075D01*
X112600000Y-118146988D01*
X112600000Y-117249364D01*
X112599999Y-117249364D01*
X112386513Y-117306567D01*
X112386507Y-117306570D01*
X112172422Y-117406399D01*
X112172420Y-117406400D01*
X111978926Y-117541886D01*
X111978920Y-117541891D01*
X111811891Y-117708920D01*
X111811890Y-117708922D01*
X111686074Y-117888606D01*
X111631497Y-117932230D01*
X111561998Y-117939423D01*
X111499644Y-117907901D01*
X111464230Y-117847671D01*
X111460499Y-117817482D01*
X111460499Y-117685143D01*
X111460499Y-117685136D01*
X111460497Y-117685117D01*
X111457586Y-117660012D01*
X111457585Y-117660010D01*
X111457585Y-117660009D01*
X111412206Y-117557235D01*
X111332765Y-117477794D01*
X111312124Y-117468680D01*
X111229992Y-117432415D01*
X111204865Y-117429500D01*
X109415143Y-117429500D01*
X109415117Y-117429502D01*
X109390012Y-117432413D01*
X109390008Y-117432415D01*
X109287235Y-117477793D01*
X109207794Y-117557234D01*
X109162415Y-117660006D01*
X109162415Y-117660008D01*
X109159500Y-117685131D01*
X72700000Y-117685131D01*
X72700000Y-112465131D01*
X93274500Y-112465131D01*
X93274500Y-114254856D01*
X93274502Y-114254882D01*
X93277413Y-114279987D01*
X93277415Y-114279991D01*
X93322793Y-114382764D01*
X93322794Y-114382765D01*
X93402235Y-114462206D01*
X93505009Y-114507585D01*
X93530135Y-114510500D01*
X95319864Y-114510499D01*
X95319879Y-114510497D01*
X95319882Y-114510497D01*
X95344987Y-114507586D01*
X95344988Y-114507585D01*
X95344991Y-114507585D01*
X95447765Y-114462206D01*
X95527206Y-114382765D01*
X95572585Y-114279991D01*
X95575500Y-114254865D01*
X95575499Y-112465136D01*
X95575497Y-112465117D01*
X95572586Y-112440012D01*
X95572585Y-112440010D01*
X95572585Y-112440009D01*
X95527206Y-112337235D01*
X95447765Y-112257794D01*
X95447763Y-112257793D01*
X95344992Y-112212415D01*
X95319865Y-112209500D01*
X93530143Y-112209500D01*
X93530117Y-112209502D01*
X93505012Y-112212413D01*
X93505008Y-112212415D01*
X93402235Y-112257793D01*
X93322794Y-112337234D01*
X93277415Y-112440006D01*
X93277415Y-112440008D01*
X93274500Y-112465131D01*
X72700000Y-112465131D01*
X72700000Y-109479999D01*
X111014722Y-109479999D01*
X111014722Y-109480000D01*
X111033762Y-109636818D01*
X111089780Y-109784523D01*
X111179517Y-109914530D01*
X111297760Y-110019283D01*
X111297762Y-110019284D01*
X111437634Y-110092696D01*
X111591014Y-110130500D01*
X111591015Y-110130500D01*
X111748985Y-110130500D01*
X111902365Y-110092696D01*
X112042240Y-110019283D01*
X112160483Y-109914530D01*
X112250220Y-109784523D01*
X112306237Y-109636818D01*
X112310193Y-109604229D01*
X112337812Y-109540052D01*
X112345597Y-109531505D01*
X113100285Y-108776819D01*
X113161608Y-108743334D01*
X113187966Y-108740500D01*
X113228985Y-108740500D01*
X113382365Y-108702696D01*
X113522240Y-108629283D01*
X113640483Y-108524530D01*
X113730220Y-108394523D01*
X113786237Y-108246818D01*
X113805278Y-108090000D01*
X113786237Y-107933182D01*
X113786236Y-107933180D01*
X113733518Y-107794174D01*
X113730220Y-107785477D01*
X113640483Y-107655470D01*
X113522240Y-107550717D01*
X113522238Y-107550716D01*
X113522237Y-107550715D01*
X113382365Y-107477303D01*
X113228986Y-107439500D01*
X113228985Y-107439500D01*
X113071015Y-107439500D01*
X113071014Y-107439500D01*
X112917634Y-107477303D01*
X112777762Y-107550715D01*
X112659516Y-107655471D01*
X112569781Y-107785475D01*
X112569780Y-107785476D01*
X112513763Y-107933180D01*
X112497367Y-108068208D01*
X112469745Y-108132386D01*
X112461952Y-108140942D01*
X111809715Y-108793181D01*
X111748392Y-108826666D01*
X111722034Y-108829500D01*
X111591014Y-108829500D01*
X111437634Y-108867303D01*
X111297762Y-108940715D01*
X111179516Y-109045471D01*
X111089781Y-109175475D01*
X111089780Y-109175476D01*
X111033762Y-109323181D01*
X111014722Y-109479999D01*
X72700000Y-109479999D01*
X72700000Y-106962155D01*
X73650000Y-106962155D01*
X73650000Y-107610000D01*
X74566988Y-107610000D01*
X74534075Y-107667007D01*
X74500000Y-107794174D01*
X74500000Y-107925826D01*
X74534075Y-108052993D01*
X74566988Y-108110000D01*
X73650000Y-108110000D01*
X73650000Y-108757844D01*
X73656401Y-108817372D01*
X73656403Y-108817379D01*
X73706645Y-108952086D01*
X73706649Y-108952093D01*
X73792809Y-109067187D01*
X73792812Y-109067190D01*
X73907906Y-109153350D01*
X73907913Y-109153354D01*
X74042620Y-109203596D01*
X74042627Y-109203598D01*
X74102155Y-109209999D01*
X74102172Y-109210000D01*
X74750000Y-109210000D01*
X74750000Y-108293012D01*
X74807007Y-108325925D01*
X74934174Y-108360000D01*
X75065826Y-108360000D01*
X75192993Y-108325925D01*
X75250000Y-108293012D01*
X75250000Y-109210000D01*
X75897828Y-109210000D01*
X75897844Y-109209999D01*
X75957372Y-109203598D01*
X75957379Y-109203596D01*
X76092086Y-109153354D01*
X76092093Y-109153350D01*
X76207187Y-109067190D01*
X76207190Y-109067187D01*
X76293350Y-108952093D01*
X76293354Y-108952086D01*
X76343596Y-108817379D01*
X76343598Y-108817372D01*
X76349999Y-108757844D01*
X76350000Y-108757827D01*
X76350000Y-108110000D01*
X75433012Y-108110000D01*
X75465925Y-108052993D01*
X75500000Y-107925826D01*
X75500000Y-107794174D01*
X75465925Y-107667007D01*
X75433012Y-107610000D01*
X76350000Y-107610000D01*
X76350000Y-106965131D01*
X79524500Y-106965131D01*
X79524500Y-108754856D01*
X79524502Y-108754882D01*
X79527413Y-108779987D01*
X79527415Y-108779991D01*
X79572793Y-108882764D01*
X79572794Y-108882765D01*
X79652235Y-108962206D01*
X79755009Y-109007585D01*
X79780135Y-109010500D01*
X81569864Y-109010499D01*
X81569879Y-109010497D01*
X81569882Y-109010497D01*
X81594987Y-109007586D01*
X81594988Y-109007585D01*
X81594991Y-109007585D01*
X81697765Y-108962206D01*
X81777206Y-108882765D01*
X81822585Y-108779991D01*
X81825500Y-108754865D01*
X81825499Y-106965136D01*
X81825497Y-106965117D01*
X81822586Y-106940012D01*
X81822585Y-106940010D01*
X81822585Y-106940009D01*
X81777206Y-106837235D01*
X81697765Y-106757794D01*
X81697763Y-106757793D01*
X81594992Y-106712415D01*
X81569865Y-106709500D01*
X79780143Y-106709500D01*
X79780117Y-106709502D01*
X79755012Y-106712413D01*
X79755008Y-106712415D01*
X79652235Y-106757793D01*
X79572794Y-106837234D01*
X79527415Y-106940006D01*
X79527415Y-106940008D01*
X79524500Y-106965131D01*
X76350000Y-106965131D01*
X76350000Y-106962172D01*
X76349999Y-106962155D01*
X76343598Y-106902627D01*
X76343596Y-106902620D01*
X76293354Y-106767913D01*
X76293350Y-106767906D01*
X76207190Y-106652812D01*
X76207187Y-106652809D01*
X76092093Y-106566649D01*
X76092086Y-106566645D01*
X75957379Y-106516403D01*
X75957372Y-106516401D01*
X75897844Y-106510000D01*
X75250000Y-106510000D01*
X75250000Y-107426988D01*
X75192993Y-107394075D01*
X75065826Y-107360000D01*
X74934174Y-107360000D01*
X74807007Y-107394075D01*
X74750000Y-107426988D01*
X74750000Y-106510000D01*
X74102155Y-106510000D01*
X74042627Y-106516401D01*
X74042620Y-106516403D01*
X73907913Y-106566645D01*
X73907906Y-106566649D01*
X73792812Y-106652809D01*
X73792809Y-106652812D01*
X73706649Y-106767906D01*
X73706645Y-106767913D01*
X73656403Y-106902620D01*
X73656401Y-106902627D01*
X73650000Y-106962155D01*
X72700000Y-106962155D01*
X72700000Y-101965131D01*
X78849500Y-101965131D01*
X78849500Y-103754856D01*
X78849502Y-103754882D01*
X78852413Y-103779987D01*
X78852415Y-103779991D01*
X78897793Y-103882764D01*
X78897794Y-103882765D01*
X78977235Y-103962206D01*
X79080009Y-104007585D01*
X79105135Y-104010500D01*
X80894864Y-104010499D01*
X80894879Y-104010497D01*
X80894882Y-104010497D01*
X80919987Y-104007586D01*
X80919988Y-104007585D01*
X80919991Y-104007585D01*
X81022765Y-103962206D01*
X81102206Y-103882765D01*
X81147585Y-103779991D01*
X81150500Y-103754865D01*
X81150499Y-103016046D01*
X81170183Y-102949009D01*
X81222987Y-102903254D01*
X81292146Y-102893310D01*
X81355702Y-102922335D01*
X81393476Y-102981113D01*
X81397970Y-103004606D01*
X81402454Y-103052993D01*
X81404244Y-103072310D01*
X81457675Y-103260099D01*
X81462596Y-103277392D01*
X81462596Y-103277394D01*
X81557632Y-103468253D01*
X81686127Y-103638406D01*
X81686128Y-103638407D01*
X81843698Y-103782052D01*
X82024981Y-103894298D01*
X82223802Y-103971321D01*
X82433390Y-104010500D01*
X82433392Y-104010500D01*
X82646608Y-104010500D01*
X82646610Y-104010500D01*
X82856198Y-103971321D01*
X83055019Y-103894298D01*
X83236302Y-103782052D01*
X83393872Y-103638407D01*
X83522366Y-103468255D01*
X83576270Y-103360000D01*
X83617403Y-103277394D01*
X83617403Y-103277393D01*
X83617405Y-103277389D01*
X83675756Y-103072310D01*
X83686529Y-102956047D01*
X83712315Y-102891111D01*
X83754622Y-102860804D01*
X83863130Y-102860804D01*
X83899503Y-102881668D01*
X83931693Y-102943681D01*
X83933470Y-102956047D01*
X83944244Y-103072310D01*
X83997675Y-103260099D01*
X84002596Y-103277392D01*
X84002596Y-103277394D01*
X84097632Y-103468253D01*
X84226127Y-103638406D01*
X84226128Y-103638407D01*
X84383698Y-103782052D01*
X84564981Y-103894298D01*
X84763802Y-103971321D01*
X84973390Y-104010500D01*
X84973392Y-104010500D01*
X85186608Y-104010500D01*
X85186610Y-104010500D01*
X85396198Y-103971321D01*
X85595019Y-103894298D01*
X85776302Y-103782052D01*
X85933872Y-103638407D01*
X86062366Y-103468255D01*
X86116270Y-103360000D01*
X86157403Y-103277394D01*
X86157403Y-103277393D01*
X86157405Y-103277389D01*
X86215756Y-103072310D01*
X86226529Y-102956047D01*
X86252315Y-102891111D01*
X86294622Y-102860804D01*
X86403130Y-102860804D01*
X86439503Y-102881668D01*
X86471693Y-102943681D01*
X86473470Y-102956047D01*
X86484244Y-103072310D01*
X86537675Y-103260099D01*
X86542596Y-103277392D01*
X86542596Y-103277394D01*
X86637632Y-103468253D01*
X86766127Y-103638406D01*
X86766128Y-103638407D01*
X86923698Y-103782052D01*
X87104981Y-103894298D01*
X87303802Y-103971321D01*
X87513390Y-104010500D01*
X87513392Y-104010500D01*
X87726608Y-104010500D01*
X87726610Y-104010500D01*
X87936198Y-103971321D01*
X88135019Y-103894298D01*
X88316302Y-103782052D01*
X88473872Y-103638407D01*
X88602366Y-103468255D01*
X88656270Y-103360000D01*
X88697403Y-103277394D01*
X88697403Y-103277393D01*
X88697405Y-103277389D01*
X88755756Y-103072310D01*
X88766529Y-102956047D01*
X88792315Y-102891111D01*
X88834622Y-102860804D01*
X88943130Y-102860804D01*
X88979503Y-102881668D01*
X89011693Y-102943681D01*
X89013470Y-102956047D01*
X89024244Y-103072310D01*
X89077675Y-103260099D01*
X89082596Y-103277392D01*
X89082596Y-103277394D01*
X89177632Y-103468253D01*
X89306127Y-103638406D01*
X89306128Y-103638407D01*
X89463698Y-103782052D01*
X89644981Y-103894298D01*
X89843802Y-103971321D01*
X90053390Y-104010500D01*
X90053392Y-104010500D01*
X90266608Y-104010500D01*
X90266610Y-104010500D01*
X90476198Y-103971321D01*
X90675019Y-103894298D01*
X90856302Y-103782052D01*
X91013872Y-103638407D01*
X91142366Y-103468255D01*
X91196270Y-103360000D01*
X91237403Y-103277394D01*
X91237403Y-103277393D01*
X91237405Y-103277389D01*
X91295756Y-103072310D01*
X91306529Y-102956047D01*
X91332315Y-102891111D01*
X91374622Y-102860804D01*
X91483130Y-102860804D01*
X91519503Y-102881668D01*
X91551693Y-102943681D01*
X91553470Y-102956047D01*
X91564244Y-103072310D01*
X91617675Y-103260099D01*
X91622596Y-103277392D01*
X91622596Y-103277394D01*
X91717632Y-103468253D01*
X91846127Y-103638406D01*
X91846128Y-103638407D01*
X92003698Y-103782052D01*
X92184981Y-103894298D01*
X92383802Y-103971321D01*
X92593390Y-104010500D01*
X92593392Y-104010500D01*
X92806608Y-104010500D01*
X92806610Y-104010500D01*
X93016198Y-103971321D01*
X93215019Y-103894298D01*
X93396302Y-103782052D01*
X93553872Y-103638407D01*
X93682366Y-103468255D01*
X93736270Y-103360000D01*
X93777403Y-103277394D01*
X93777403Y-103277393D01*
X93777405Y-103277389D01*
X93835756Y-103072310D01*
X93846529Y-102956047D01*
X93872315Y-102891111D01*
X93914622Y-102860804D01*
X94023130Y-102860804D01*
X94059503Y-102881668D01*
X94091693Y-102943681D01*
X94093470Y-102956047D01*
X94104244Y-103072310D01*
X94157675Y-103260099D01*
X94162596Y-103277392D01*
X94162596Y-103277394D01*
X94257632Y-103468253D01*
X94386127Y-103638406D01*
X94386128Y-103638407D01*
X94543698Y-103782052D01*
X94724981Y-103894298D01*
X94923802Y-103971321D01*
X95133390Y-104010500D01*
X95133392Y-104010500D01*
X95346608Y-104010500D01*
X95346610Y-104010500D01*
X95556198Y-103971321D01*
X95755019Y-103894298D01*
X95936302Y-103782052D01*
X96093872Y-103638407D01*
X96222366Y-103468255D01*
X96276270Y-103360000D01*
X96317403Y-103277394D01*
X96317403Y-103277393D01*
X96317405Y-103277389D01*
X96375756Y-103072310D01*
X96386529Y-102956047D01*
X96412315Y-102891111D01*
X96454622Y-102860804D01*
X96563130Y-102860804D01*
X96599503Y-102881668D01*
X96631693Y-102943681D01*
X96633470Y-102956047D01*
X96644244Y-103072310D01*
X96697675Y-103260099D01*
X96702596Y-103277392D01*
X96702596Y-103277394D01*
X96797632Y-103468253D01*
X96926127Y-103638406D01*
X96926128Y-103638407D01*
X97083698Y-103782052D01*
X97264981Y-103894298D01*
X97463802Y-103971321D01*
X97673390Y-104010500D01*
X97673392Y-104010500D01*
X97886608Y-104010500D01*
X97886610Y-104010500D01*
X98096198Y-103971321D01*
X98295019Y-103894298D01*
X98476302Y-103782052D01*
X98633872Y-103638407D01*
X98762366Y-103468255D01*
X98816270Y-103360000D01*
X98857403Y-103277394D01*
X98857403Y-103277393D01*
X98857405Y-103277389D01*
X98915756Y-103072310D01*
X98926529Y-102956047D01*
X98952315Y-102891111D01*
X98994622Y-102860804D01*
X99103130Y-102860804D01*
X99139503Y-102881668D01*
X99171693Y-102943681D01*
X99173470Y-102956047D01*
X99184244Y-103072310D01*
X99237675Y-103260099D01*
X99242596Y-103277392D01*
X99242596Y-103277394D01*
X99337632Y-103468253D01*
X99466127Y-103638406D01*
X99466128Y-103638407D01*
X99623698Y-103782052D01*
X99804981Y-103894298D01*
X100003802Y-103971321D01*
X100213390Y-104010500D01*
X100213392Y-104010500D01*
X100426608Y-104010500D01*
X100426610Y-104010500D01*
X100636198Y-103971321D01*
X100835019Y-103894298D01*
X101016302Y-103782052D01*
X101173872Y-103638407D01*
X101302366Y-103468255D01*
X101356270Y-103360000D01*
X101397403Y-103277394D01*
X101397403Y-103277393D01*
X101397405Y-103277389D01*
X101455756Y-103072310D01*
X101466529Y-102956047D01*
X101492315Y-102891111D01*
X101534622Y-102860804D01*
X101643130Y-102860804D01*
X101679503Y-102881668D01*
X101711693Y-102943681D01*
X101713470Y-102956047D01*
X101724244Y-103072310D01*
X101777675Y-103260099D01*
X101782596Y-103277392D01*
X101782596Y-103277394D01*
X101877632Y-103468253D01*
X102006127Y-103638406D01*
X102006128Y-103638407D01*
X102163698Y-103782052D01*
X102344981Y-103894298D01*
X102543802Y-103971321D01*
X102753390Y-104010500D01*
X102753392Y-104010500D01*
X102966608Y-104010500D01*
X102966610Y-104010500D01*
X103176198Y-103971321D01*
X103375019Y-103894298D01*
X103556302Y-103782052D01*
X103713872Y-103638407D01*
X103842366Y-103468255D01*
X103896270Y-103360000D01*
X103937403Y-103277394D01*
X103937403Y-103277393D01*
X103937405Y-103277389D01*
X103995756Y-103072310D01*
X104006529Y-102956047D01*
X104032315Y-102891111D01*
X104074622Y-102860804D01*
X104183130Y-102860804D01*
X104219503Y-102881668D01*
X104251693Y-102943681D01*
X104253470Y-102956047D01*
X104264244Y-103072310D01*
X104317675Y-103260099D01*
X104322596Y-103277392D01*
X104322596Y-103277394D01*
X104417632Y-103468253D01*
X104546127Y-103638406D01*
X104546128Y-103638407D01*
X104703698Y-103782052D01*
X104884981Y-103894298D01*
X105083802Y-103971321D01*
X105293390Y-104010500D01*
X105293392Y-104010500D01*
X105506608Y-104010500D01*
X105506610Y-104010500D01*
X105716198Y-103971321D01*
X105915019Y-103894298D01*
X106096302Y-103782052D01*
X106253872Y-103638407D01*
X106382366Y-103468255D01*
X106436270Y-103360000D01*
X106477403Y-103277394D01*
X106477403Y-103277393D01*
X106477405Y-103277389D01*
X106535756Y-103072310D01*
X106546529Y-102956047D01*
X106572315Y-102891111D01*
X106614622Y-102860804D01*
X106723130Y-102860804D01*
X106759503Y-102881668D01*
X106791693Y-102943681D01*
X106793470Y-102956047D01*
X106804244Y-103072310D01*
X106857675Y-103260099D01*
X106862596Y-103277392D01*
X106862596Y-103277394D01*
X106957632Y-103468253D01*
X107086127Y-103638406D01*
X107086128Y-103638407D01*
X107243698Y-103782052D01*
X107424981Y-103894298D01*
X107623802Y-103971321D01*
X107833390Y-104010500D01*
X107833392Y-104010500D01*
X108046608Y-104010500D01*
X108046610Y-104010500D01*
X108256198Y-103971321D01*
X108455019Y-103894298D01*
X108636302Y-103782052D01*
X108793872Y-103638407D01*
X108922366Y-103468255D01*
X108976270Y-103360000D01*
X109017403Y-103277394D01*
X109017403Y-103277393D01*
X109017405Y-103277389D01*
X109075756Y-103072310D01*
X109086529Y-102956047D01*
X109112315Y-102891111D01*
X109154622Y-102860804D01*
X109263130Y-102860804D01*
X109299503Y-102881668D01*
X109331693Y-102943681D01*
X109333470Y-102956047D01*
X109344244Y-103072310D01*
X109397675Y-103260099D01*
X109402596Y-103277392D01*
X109402596Y-103277394D01*
X109497632Y-103468253D01*
X109626127Y-103638406D01*
X109626128Y-103638407D01*
X109783698Y-103782052D01*
X109964981Y-103894298D01*
X110163802Y-103971321D01*
X110373390Y-104010500D01*
X110373392Y-104010500D01*
X110586608Y-104010500D01*
X110586610Y-104010500D01*
X110796198Y-103971321D01*
X110995019Y-103894298D01*
X111176302Y-103782052D01*
X111333872Y-103638407D01*
X111462366Y-103468255D01*
X111529325Y-103333781D01*
X111576825Y-103282548D01*
X111644488Y-103265126D01*
X111710828Y-103287051D01*
X111752705Y-103336651D01*
X111846399Y-103537578D01*
X111981894Y-103731082D01*
X112148917Y-103898105D01*
X112342421Y-104033600D01*
X112556507Y-104133429D01*
X112556516Y-104133433D01*
X112770000Y-104190634D01*
X112770000Y-103293012D01*
X112827007Y-103325925D01*
X112954174Y-103360000D01*
X113085826Y-103360000D01*
X113212993Y-103325925D01*
X113270000Y-103293012D01*
X113270000Y-104190633D01*
X113483483Y-104133433D01*
X113483492Y-104133429D01*
X113697578Y-104033600D01*
X113891082Y-103898105D01*
X114058105Y-103731082D01*
X114193600Y-103537578D01*
X114287294Y-103336651D01*
X114333466Y-103284212D01*
X114400660Y-103265060D01*
X114467541Y-103285276D01*
X114510676Y-103333785D01*
X114577632Y-103468253D01*
X114706127Y-103638406D01*
X114706128Y-103638407D01*
X114863698Y-103782052D01*
X115044981Y-103894298D01*
X115243802Y-103971321D01*
X115453390Y-104010500D01*
X115453392Y-104010500D01*
X115666608Y-104010500D01*
X115666610Y-104010500D01*
X115876198Y-103971321D01*
X116075019Y-103894298D01*
X116256302Y-103782052D01*
X116413872Y-103638407D01*
X116542366Y-103468255D01*
X116596270Y-103360000D01*
X116637403Y-103277394D01*
X116637403Y-103277393D01*
X116637405Y-103277389D01*
X116695756Y-103072310D01*
X116706529Y-102956047D01*
X116732315Y-102891111D01*
X116774622Y-102860804D01*
X116883130Y-102860804D01*
X116919503Y-102881668D01*
X116951693Y-102943681D01*
X116953470Y-102956047D01*
X116964244Y-103072310D01*
X117017675Y-103260099D01*
X117022596Y-103277392D01*
X117022596Y-103277394D01*
X117117632Y-103468253D01*
X117246127Y-103638406D01*
X117246128Y-103638407D01*
X117403698Y-103782052D01*
X117584981Y-103894298D01*
X117783802Y-103971321D01*
X117993390Y-104010500D01*
X117993392Y-104010500D01*
X118206608Y-104010500D01*
X118206610Y-104010500D01*
X118416198Y-103971321D01*
X118615019Y-103894298D01*
X118796302Y-103782052D01*
X118953872Y-103638407D01*
X119082366Y-103468255D01*
X119136270Y-103360000D01*
X119177403Y-103277394D01*
X119177403Y-103277393D01*
X119177405Y-103277389D01*
X119235756Y-103072310D01*
X119246529Y-102956047D01*
X119272315Y-102891111D01*
X119314622Y-102860804D01*
X119423130Y-102860804D01*
X119459503Y-102881668D01*
X119491693Y-102943681D01*
X119493470Y-102956047D01*
X119504244Y-103072310D01*
X119557675Y-103260099D01*
X119562596Y-103277392D01*
X119562596Y-103277394D01*
X119657632Y-103468253D01*
X119786127Y-103638406D01*
X119786128Y-103638407D01*
X119943698Y-103782052D01*
X120124981Y-103894298D01*
X120323802Y-103971321D01*
X120533390Y-104010500D01*
X120533392Y-104010500D01*
X120746608Y-104010500D01*
X120746610Y-104010500D01*
X120956198Y-103971321D01*
X121155019Y-103894298D01*
X121336302Y-103782052D01*
X121493872Y-103638407D01*
X121622366Y-103468255D01*
X121676270Y-103360000D01*
X121717403Y-103277394D01*
X121717403Y-103277393D01*
X121717405Y-103277389D01*
X121775756Y-103072310D01*
X121786529Y-102956047D01*
X121812315Y-102891111D01*
X121854622Y-102860804D01*
X121963130Y-102860804D01*
X121999503Y-102881668D01*
X122031693Y-102943681D01*
X122033470Y-102956047D01*
X122044244Y-103072310D01*
X122097675Y-103260099D01*
X122102596Y-103277392D01*
X122102596Y-103277394D01*
X122197632Y-103468253D01*
X122326127Y-103638406D01*
X122326128Y-103638407D01*
X122483698Y-103782052D01*
X122664981Y-103894298D01*
X122863802Y-103971321D01*
X123073390Y-104010500D01*
X123073392Y-104010500D01*
X123286608Y-104010500D01*
X123286610Y-104010500D01*
X123496198Y-103971321D01*
X123695019Y-103894298D01*
X123876302Y-103782052D01*
X124033872Y-103638407D01*
X124162366Y-103468255D01*
X124216270Y-103360000D01*
X124257403Y-103277394D01*
X124257403Y-103277393D01*
X124257405Y-103277389D01*
X124315756Y-103072310D01*
X124326529Y-102956047D01*
X124352315Y-102891111D01*
X124394622Y-102860804D01*
X124503130Y-102860804D01*
X124539503Y-102881668D01*
X124571693Y-102943681D01*
X124573470Y-102956047D01*
X124584244Y-103072310D01*
X124637675Y-103260099D01*
X124642596Y-103277392D01*
X124642596Y-103277394D01*
X124737632Y-103468253D01*
X124866127Y-103638406D01*
X124866128Y-103638407D01*
X125023698Y-103782052D01*
X125204981Y-103894298D01*
X125403802Y-103971321D01*
X125613390Y-104010500D01*
X125613392Y-104010500D01*
X125826608Y-104010500D01*
X125826610Y-104010500D01*
X126036198Y-103971321D01*
X126235019Y-103894298D01*
X126416302Y-103782052D01*
X126573872Y-103638407D01*
X126702366Y-103468255D01*
X126756270Y-103360000D01*
X126797403Y-103277394D01*
X126797403Y-103277393D01*
X126797405Y-103277389D01*
X126855756Y-103072310D01*
X126875429Y-102860000D01*
X126855756Y-102647690D01*
X126797405Y-102442611D01*
X126797403Y-102442606D01*
X126797403Y-102442605D01*
X126702367Y-102251746D01*
X126573872Y-102081593D01*
X126416302Y-101937948D01*
X126235019Y-101825702D01*
X126235017Y-101825701D01*
X126135608Y-101787190D01*
X126036198Y-101748679D01*
X125826610Y-101709500D01*
X125613390Y-101709500D01*
X125403802Y-101748679D01*
X125403799Y-101748679D01*
X125403799Y-101748680D01*
X125204982Y-101825701D01*
X125204980Y-101825702D01*
X125023699Y-101937947D01*
X124866127Y-102081593D01*
X124737632Y-102251746D01*
X124642596Y-102442605D01*
X124642596Y-102442607D01*
X124584244Y-102647689D01*
X124573471Y-102763951D01*
X124547685Y-102828888D01*
X124503130Y-102860804D01*
X124394622Y-102860804D01*
X124396869Y-102859194D01*
X124360497Y-102838331D01*
X124328307Y-102776318D01*
X124326529Y-102763951D01*
X124325849Y-102756613D01*
X124315756Y-102647690D01*
X124257405Y-102442611D01*
X124257403Y-102442606D01*
X124257403Y-102442605D01*
X124162367Y-102251746D01*
X124033872Y-102081593D01*
X123876302Y-101937948D01*
X123695019Y-101825702D01*
X123695017Y-101825701D01*
X123595608Y-101787190D01*
X123496198Y-101748679D01*
X123286610Y-101709500D01*
X123073390Y-101709500D01*
X122863802Y-101748679D01*
X122863799Y-101748679D01*
X122863799Y-101748680D01*
X122664982Y-101825701D01*
X122664980Y-101825702D01*
X122483699Y-101937947D01*
X122326127Y-102081593D01*
X122197632Y-102251746D01*
X122102596Y-102442605D01*
X122102596Y-102442607D01*
X122044244Y-102647689D01*
X122033471Y-102763951D01*
X122007685Y-102828888D01*
X121963130Y-102860804D01*
X121854622Y-102860804D01*
X121856869Y-102859194D01*
X121820497Y-102838331D01*
X121788307Y-102776318D01*
X121786529Y-102763951D01*
X121785849Y-102756613D01*
X121775756Y-102647690D01*
X121717405Y-102442611D01*
X121717403Y-102442606D01*
X121717403Y-102442605D01*
X121622367Y-102251746D01*
X121493872Y-102081593D01*
X121336302Y-101937948D01*
X121155019Y-101825702D01*
X121155017Y-101825701D01*
X121055608Y-101787190D01*
X120956198Y-101748679D01*
X120746610Y-101709500D01*
X120533390Y-101709500D01*
X120323802Y-101748679D01*
X120323799Y-101748679D01*
X120323799Y-101748680D01*
X120124982Y-101825701D01*
X120124980Y-101825702D01*
X119943699Y-101937947D01*
X119786127Y-102081593D01*
X119657632Y-102251746D01*
X119562596Y-102442605D01*
X119562596Y-102442607D01*
X119504244Y-102647689D01*
X119493471Y-102763951D01*
X119467685Y-102828888D01*
X119423130Y-102860804D01*
X119314622Y-102860804D01*
X119316869Y-102859194D01*
X119280497Y-102838331D01*
X119248307Y-102776318D01*
X119246529Y-102763951D01*
X119245849Y-102756613D01*
X119235756Y-102647690D01*
X119177405Y-102442611D01*
X119177403Y-102442606D01*
X119177403Y-102442605D01*
X119082367Y-102251746D01*
X118953872Y-102081593D01*
X118796302Y-101937948D01*
X118615019Y-101825702D01*
X118615017Y-101825701D01*
X118515608Y-101787190D01*
X118416198Y-101748679D01*
X118206610Y-101709500D01*
X117993390Y-101709500D01*
X117783802Y-101748679D01*
X117783799Y-101748679D01*
X117783799Y-101748680D01*
X117584982Y-101825701D01*
X117584980Y-101825702D01*
X117403699Y-101937947D01*
X117246127Y-102081593D01*
X117117632Y-102251746D01*
X117022596Y-102442605D01*
X117022596Y-102442607D01*
X116964244Y-102647689D01*
X116953471Y-102763951D01*
X116927685Y-102828888D01*
X116883130Y-102860804D01*
X116774622Y-102860804D01*
X116776869Y-102859194D01*
X116740497Y-102838331D01*
X116708307Y-102776318D01*
X116706529Y-102763951D01*
X116705849Y-102756613D01*
X116695756Y-102647690D01*
X116637405Y-102442611D01*
X116637403Y-102442606D01*
X116637403Y-102442605D01*
X116542367Y-102251746D01*
X116413872Y-102081593D01*
X116256302Y-101937948D01*
X116075019Y-101825702D01*
X116075017Y-101825701D01*
X115975608Y-101787190D01*
X115876198Y-101748679D01*
X115666610Y-101709500D01*
X115453390Y-101709500D01*
X115243802Y-101748679D01*
X115243799Y-101748679D01*
X115243799Y-101748680D01*
X115044982Y-101825701D01*
X115044980Y-101825702D01*
X114863699Y-101937947D01*
X114706127Y-102081593D01*
X114577634Y-102251744D01*
X114510676Y-102386215D01*
X114463173Y-102437452D01*
X114395510Y-102454873D01*
X114329170Y-102432947D01*
X114287294Y-102383348D01*
X114193600Y-102182422D01*
X114193599Y-102182420D01*
X114058113Y-101988926D01*
X114058108Y-101988920D01*
X113891082Y-101821894D01*
X113697578Y-101686399D01*
X113483492Y-101586570D01*
X113483486Y-101586567D01*
X113270000Y-101529364D01*
X113270000Y-102426988D01*
X113212993Y-102394075D01*
X113085826Y-102360000D01*
X112954174Y-102360000D01*
X112827007Y-102394075D01*
X112770000Y-102426988D01*
X112770000Y-101529364D01*
X112769999Y-101529364D01*
X112556513Y-101586567D01*
X112556507Y-101586570D01*
X112342422Y-101686399D01*
X112342420Y-101686400D01*
X112148926Y-101821886D01*
X112148920Y-101821891D01*
X111981891Y-101988920D01*
X111981886Y-101988926D01*
X111846400Y-102182420D01*
X111846399Y-102182422D01*
X111752705Y-102383348D01*
X111706532Y-102435787D01*
X111639339Y-102454939D01*
X111572457Y-102434723D01*
X111529323Y-102386215D01*
X111462366Y-102251745D01*
X111333872Y-102081593D01*
X111176302Y-101937948D01*
X110995019Y-101825702D01*
X110995017Y-101825701D01*
X110895608Y-101787190D01*
X110796198Y-101748679D01*
X110586610Y-101709500D01*
X110373390Y-101709500D01*
X110163802Y-101748679D01*
X110163799Y-101748679D01*
X110163799Y-101748680D01*
X109964982Y-101825701D01*
X109964980Y-101825702D01*
X109783699Y-101937947D01*
X109626127Y-102081593D01*
X109497632Y-102251746D01*
X109402596Y-102442605D01*
X109402596Y-102442607D01*
X109344244Y-102647689D01*
X109333471Y-102763951D01*
X109307685Y-102828888D01*
X109263130Y-102860804D01*
X109154622Y-102860804D01*
X109156869Y-102859194D01*
X109120497Y-102838331D01*
X109088307Y-102776318D01*
X109086529Y-102763951D01*
X109085849Y-102756613D01*
X109075756Y-102647690D01*
X109017405Y-102442611D01*
X109017403Y-102442606D01*
X109017403Y-102442605D01*
X108922367Y-102251746D01*
X108793872Y-102081593D01*
X108636302Y-101937948D01*
X108455019Y-101825702D01*
X108455017Y-101825701D01*
X108355608Y-101787190D01*
X108256198Y-101748679D01*
X108046610Y-101709500D01*
X107833390Y-101709500D01*
X107623802Y-101748679D01*
X107623799Y-101748679D01*
X107623799Y-101748680D01*
X107424982Y-101825701D01*
X107424980Y-101825702D01*
X107243699Y-101937947D01*
X107086127Y-102081593D01*
X106957632Y-102251746D01*
X106862596Y-102442605D01*
X106862596Y-102442607D01*
X106804244Y-102647689D01*
X106793471Y-102763951D01*
X106767685Y-102828888D01*
X106723130Y-102860804D01*
X106614622Y-102860804D01*
X106616869Y-102859194D01*
X106580497Y-102838331D01*
X106548307Y-102776318D01*
X106546529Y-102763951D01*
X106545849Y-102756613D01*
X106535756Y-102647690D01*
X106477405Y-102442611D01*
X106477403Y-102442606D01*
X106477403Y-102442605D01*
X106382367Y-102251746D01*
X106253872Y-102081593D01*
X106096302Y-101937948D01*
X105915019Y-101825702D01*
X105915017Y-101825701D01*
X105815608Y-101787190D01*
X105716198Y-101748679D01*
X105506610Y-101709500D01*
X105293390Y-101709500D01*
X105083802Y-101748679D01*
X105083799Y-101748679D01*
X105083799Y-101748680D01*
X104884982Y-101825701D01*
X104884980Y-101825702D01*
X104703699Y-101937947D01*
X104546127Y-102081593D01*
X104417632Y-102251746D01*
X104322596Y-102442605D01*
X104322596Y-102442607D01*
X104264244Y-102647689D01*
X104253471Y-102763951D01*
X104227685Y-102828888D01*
X104183130Y-102860804D01*
X104074622Y-102860804D01*
X104076869Y-102859194D01*
X104040497Y-102838331D01*
X104008307Y-102776318D01*
X104006529Y-102763951D01*
X104005849Y-102756613D01*
X103995756Y-102647690D01*
X103937405Y-102442611D01*
X103937403Y-102442606D01*
X103937403Y-102442605D01*
X103842367Y-102251746D01*
X103713872Y-102081593D01*
X103556302Y-101937948D01*
X103375019Y-101825702D01*
X103375017Y-101825701D01*
X103275608Y-101787190D01*
X103176198Y-101748679D01*
X102966610Y-101709500D01*
X102753390Y-101709500D01*
X102543802Y-101748679D01*
X102543799Y-101748679D01*
X102543799Y-101748680D01*
X102344982Y-101825701D01*
X102344980Y-101825702D01*
X102163699Y-101937947D01*
X102006127Y-102081593D01*
X101877632Y-102251746D01*
X101782596Y-102442605D01*
X101782596Y-102442607D01*
X101724244Y-102647689D01*
X101713471Y-102763951D01*
X101687685Y-102828888D01*
X101643130Y-102860804D01*
X101534622Y-102860804D01*
X101536869Y-102859194D01*
X101500497Y-102838331D01*
X101468307Y-102776318D01*
X101466529Y-102763951D01*
X101465849Y-102756613D01*
X101455756Y-102647690D01*
X101397405Y-102442611D01*
X101397403Y-102442606D01*
X101397403Y-102442605D01*
X101302367Y-102251746D01*
X101173872Y-102081593D01*
X101016302Y-101937948D01*
X100835019Y-101825702D01*
X100835017Y-101825701D01*
X100735608Y-101787190D01*
X100636198Y-101748679D01*
X100426610Y-101709500D01*
X100213390Y-101709500D01*
X100003802Y-101748679D01*
X100003799Y-101748679D01*
X100003799Y-101748680D01*
X99804982Y-101825701D01*
X99804980Y-101825702D01*
X99623699Y-101937947D01*
X99466127Y-102081593D01*
X99337632Y-102251746D01*
X99242596Y-102442605D01*
X99242596Y-102442607D01*
X99184244Y-102647689D01*
X99173471Y-102763951D01*
X99147685Y-102828888D01*
X99103130Y-102860804D01*
X98994622Y-102860804D01*
X98996869Y-102859194D01*
X98960497Y-102838331D01*
X98928307Y-102776318D01*
X98926529Y-102763951D01*
X98925849Y-102756613D01*
X98915756Y-102647690D01*
X98857405Y-102442611D01*
X98857403Y-102442606D01*
X98857403Y-102442605D01*
X98762367Y-102251746D01*
X98633872Y-102081593D01*
X98476302Y-101937948D01*
X98295019Y-101825702D01*
X98295017Y-101825701D01*
X98195608Y-101787190D01*
X98096198Y-101748679D01*
X97886610Y-101709500D01*
X97673390Y-101709500D01*
X97463802Y-101748679D01*
X97463799Y-101748679D01*
X97463799Y-101748680D01*
X97264982Y-101825701D01*
X97264980Y-101825702D01*
X97083699Y-101937947D01*
X96926127Y-102081593D01*
X96797632Y-102251746D01*
X96702596Y-102442605D01*
X96702596Y-102442607D01*
X96644244Y-102647689D01*
X96633471Y-102763951D01*
X96607685Y-102828888D01*
X96563130Y-102860804D01*
X96454622Y-102860804D01*
X96456869Y-102859194D01*
X96420497Y-102838331D01*
X96388307Y-102776318D01*
X96386529Y-102763951D01*
X96385849Y-102756613D01*
X96375756Y-102647690D01*
X96317405Y-102442611D01*
X96317403Y-102442606D01*
X96317403Y-102442605D01*
X96222367Y-102251746D01*
X96093872Y-102081593D01*
X95936302Y-101937948D01*
X95755019Y-101825702D01*
X95755017Y-101825701D01*
X95655608Y-101787190D01*
X95556198Y-101748679D01*
X95346610Y-101709500D01*
X95133390Y-101709500D01*
X94923802Y-101748679D01*
X94923799Y-101748679D01*
X94923799Y-101748680D01*
X94724982Y-101825701D01*
X94724980Y-101825702D01*
X94543699Y-101937947D01*
X94386127Y-102081593D01*
X94257632Y-102251746D01*
X94162596Y-102442605D01*
X94162596Y-102442607D01*
X94104244Y-102647689D01*
X94093471Y-102763951D01*
X94067685Y-102828888D01*
X94023130Y-102860804D01*
X93914622Y-102860804D01*
X93916869Y-102859194D01*
X93880497Y-102838331D01*
X93848307Y-102776318D01*
X93846529Y-102763951D01*
X93845849Y-102756613D01*
X93835756Y-102647690D01*
X93777405Y-102442611D01*
X93777403Y-102442606D01*
X93777403Y-102442605D01*
X93682367Y-102251746D01*
X93553872Y-102081593D01*
X93396302Y-101937948D01*
X93215019Y-101825702D01*
X93215017Y-101825701D01*
X93115608Y-101787190D01*
X93016198Y-101748679D01*
X92806610Y-101709500D01*
X92593390Y-101709500D01*
X92383802Y-101748679D01*
X92383799Y-101748679D01*
X92383799Y-101748680D01*
X92184982Y-101825701D01*
X92184980Y-101825702D01*
X92003699Y-101937947D01*
X91846127Y-102081593D01*
X91717632Y-102251746D01*
X91622596Y-102442605D01*
X91622596Y-102442607D01*
X91564244Y-102647689D01*
X91553471Y-102763951D01*
X91527685Y-102828888D01*
X91483130Y-102860804D01*
X91374622Y-102860804D01*
X91376869Y-102859194D01*
X91340497Y-102838331D01*
X91308307Y-102776318D01*
X91306529Y-102763951D01*
X91305849Y-102756613D01*
X91295756Y-102647690D01*
X91237405Y-102442611D01*
X91237403Y-102442606D01*
X91237403Y-102442605D01*
X91142367Y-102251746D01*
X91013872Y-102081593D01*
X90856302Y-101937948D01*
X90675019Y-101825702D01*
X90675017Y-101825701D01*
X90575608Y-101787190D01*
X90476198Y-101748679D01*
X90266610Y-101709500D01*
X90053390Y-101709500D01*
X89843802Y-101748679D01*
X89843799Y-101748679D01*
X89843799Y-101748680D01*
X89644982Y-101825701D01*
X89644980Y-101825702D01*
X89463699Y-101937947D01*
X89306127Y-102081593D01*
X89177632Y-102251746D01*
X89082596Y-102442605D01*
X89082596Y-102442607D01*
X89024244Y-102647689D01*
X89013471Y-102763951D01*
X88987685Y-102828888D01*
X88943130Y-102860804D01*
X88834622Y-102860804D01*
X88836869Y-102859194D01*
X88800497Y-102838331D01*
X88768307Y-102776318D01*
X88766529Y-102763951D01*
X88765849Y-102756613D01*
X88755756Y-102647690D01*
X88697405Y-102442611D01*
X88697403Y-102442606D01*
X88697403Y-102442605D01*
X88602367Y-102251746D01*
X88473872Y-102081593D01*
X88316302Y-101937948D01*
X88135019Y-101825702D01*
X88135017Y-101825701D01*
X88035608Y-101787190D01*
X87936198Y-101748679D01*
X87726610Y-101709500D01*
X87513390Y-101709500D01*
X87303802Y-101748679D01*
X87303799Y-101748679D01*
X87303799Y-101748680D01*
X87104982Y-101825701D01*
X87104980Y-101825702D01*
X86923699Y-101937947D01*
X86766127Y-102081593D01*
X86637632Y-102251746D01*
X86542596Y-102442605D01*
X86542596Y-102442607D01*
X86484244Y-102647689D01*
X86473471Y-102763951D01*
X86447685Y-102828888D01*
X86403130Y-102860804D01*
X86294622Y-102860804D01*
X86296869Y-102859194D01*
X86260497Y-102838331D01*
X86228307Y-102776318D01*
X86226529Y-102763951D01*
X86225849Y-102756613D01*
X86215756Y-102647690D01*
X86157405Y-102442611D01*
X86157403Y-102442606D01*
X86157403Y-102442605D01*
X86062367Y-102251746D01*
X85933872Y-102081593D01*
X85776302Y-101937948D01*
X85595019Y-101825702D01*
X85595017Y-101825701D01*
X85495608Y-101787190D01*
X85396198Y-101748679D01*
X85186610Y-101709500D01*
X84973390Y-101709500D01*
X84763802Y-101748679D01*
X84763799Y-101748679D01*
X84763799Y-101748680D01*
X84564982Y-101825701D01*
X84564980Y-101825702D01*
X84383699Y-101937947D01*
X84226127Y-102081593D01*
X84097632Y-102251746D01*
X84002596Y-102442605D01*
X84002596Y-102442607D01*
X83944244Y-102647689D01*
X83933471Y-102763951D01*
X83907685Y-102828888D01*
X83863130Y-102860804D01*
X83754622Y-102860804D01*
X83756869Y-102859194D01*
X83720497Y-102838331D01*
X83688307Y-102776318D01*
X83686529Y-102763951D01*
X83685849Y-102756613D01*
X83675756Y-102647690D01*
X83617405Y-102442611D01*
X83617403Y-102442606D01*
X83617403Y-102442605D01*
X83522367Y-102251746D01*
X83393872Y-102081593D01*
X83236302Y-101937948D01*
X83055019Y-101825702D01*
X83055017Y-101825701D01*
X82955608Y-101787190D01*
X82856198Y-101748679D01*
X82646610Y-101709500D01*
X82433390Y-101709500D01*
X82223802Y-101748679D01*
X82223799Y-101748679D01*
X82223799Y-101748680D01*
X82024982Y-101825701D01*
X82024980Y-101825702D01*
X81843699Y-101937947D01*
X81686127Y-102081593D01*
X81557632Y-102251746D01*
X81462596Y-102442605D01*
X81462596Y-102442607D01*
X81404244Y-102647689D01*
X81397970Y-102715394D01*
X81372183Y-102780331D01*
X81315383Y-102821018D01*
X81245602Y-102824538D01*
X81184995Y-102789772D01*
X81152806Y-102727759D01*
X81150499Y-102703952D01*
X81150499Y-101965143D01*
X81150499Y-101965136D01*
X81150088Y-101961593D01*
X81147586Y-101940012D01*
X81147585Y-101940010D01*
X81147585Y-101940009D01*
X81102206Y-101837235D01*
X81022765Y-101757794D01*
X81002124Y-101748680D01*
X80919992Y-101712415D01*
X80894865Y-101709500D01*
X79105143Y-101709500D01*
X79105117Y-101709502D01*
X79080012Y-101712413D01*
X79080008Y-101712415D01*
X78977235Y-101757793D01*
X78897794Y-101837234D01*
X78852415Y-101940006D01*
X78852415Y-101940008D01*
X78849500Y-101965131D01*
X72700000Y-101965131D01*
X72700000Y-99949999D01*
X133869364Y-99949999D01*
X133869364Y-99950000D01*
X134766988Y-99950000D01*
X134734075Y-100007007D01*
X134700000Y-100134174D01*
X134700000Y-100265826D01*
X134734075Y-100392993D01*
X134766988Y-100450000D01*
X133869364Y-100450000D01*
X133926567Y-100663486D01*
X133926570Y-100663492D01*
X134026399Y-100877578D01*
X134161894Y-101071082D01*
X134328917Y-101238105D01*
X134522421Y-101373600D01*
X134721573Y-101466466D01*
X134774012Y-101512638D01*
X134793164Y-101579832D01*
X134772948Y-101646713D01*
X134719783Y-101692048D01*
X134713968Y-101694472D01*
X134706771Y-101697260D01*
X134684982Y-101705701D01*
X134684980Y-101705702D01*
X134503699Y-101817947D01*
X134346127Y-101961593D01*
X134217632Y-102131746D01*
X134122596Y-102322605D01*
X134122596Y-102322607D01*
X134064244Y-102527689D01*
X134044571Y-102739999D01*
X134044571Y-102740000D01*
X134064244Y-102952310D01*
X134122596Y-103157392D01*
X134122596Y-103157394D01*
X134217632Y-103348253D01*
X134308256Y-103468257D01*
X134346128Y-103518407D01*
X134503698Y-103662052D01*
X134684981Y-103774298D01*
X134883802Y-103851321D01*
X135093390Y-103890500D01*
X135093392Y-103890500D01*
X135306608Y-103890500D01*
X135306610Y-103890500D01*
X135516198Y-103851321D01*
X135715019Y-103774298D01*
X135896302Y-103662052D01*
X136053872Y-103518407D01*
X136182366Y-103348255D01*
X136212842Y-103287051D01*
X136277403Y-103157394D01*
X136277403Y-103157393D01*
X136277405Y-103157389D01*
X136335756Y-102952310D01*
X136355429Y-102740000D01*
X136335756Y-102527690D01*
X136277405Y-102322611D01*
X136277403Y-102322606D01*
X136277403Y-102322605D01*
X136182367Y-102131746D01*
X136053872Y-101961593D01*
X136030196Y-101940009D01*
X135896302Y-101817948D01*
X135715019Y-101705702D01*
X135715014Y-101705700D01*
X135708129Y-101703032D01*
X135686037Y-101694474D01*
X135630636Y-101651903D01*
X135607045Y-101586136D01*
X135622756Y-101518056D01*
X135672779Y-101469276D01*
X135678426Y-101466466D01*
X135877578Y-101373599D01*
X136071082Y-101238105D01*
X136238105Y-101071082D01*
X136373600Y-100877578D01*
X136473429Y-100663492D01*
X136473432Y-100663486D01*
X136530636Y-100450000D01*
X135633012Y-100450000D01*
X135665925Y-100392993D01*
X135700000Y-100265826D01*
X135700000Y-100134174D01*
X135665925Y-100007007D01*
X135633012Y-99950000D01*
X136530636Y-99950000D01*
X136530635Y-99949999D01*
X136473432Y-99736513D01*
X136473429Y-99736507D01*
X136373600Y-99522422D01*
X136373599Y-99522420D01*
X136238113Y-99328926D01*
X136238108Y-99328920D01*
X136071082Y-99161894D01*
X135877578Y-99026399D01*
X135678426Y-98933533D01*
X135625987Y-98887360D01*
X135606835Y-98820167D01*
X135627051Y-98753286D01*
X135680216Y-98707951D01*
X135686005Y-98705537D01*
X135715019Y-98694298D01*
X135896302Y-98582052D01*
X136053872Y-98438407D01*
X136182366Y-98268255D01*
X136277405Y-98077389D01*
X136335756Y-97872310D01*
X136355429Y-97660000D01*
X136335756Y-97447690D01*
X136277405Y-97242611D01*
X136277403Y-97242606D01*
X136277403Y-97242605D01*
X136182367Y-97051746D01*
X136053872Y-96881593D01*
X135896302Y-96737948D01*
X135715019Y-96625702D01*
X135715017Y-96625701D01*
X135615608Y-96587190D01*
X135516198Y-96548679D01*
X135319385Y-96511888D01*
X135257106Y-96480221D01*
X135221833Y-96419908D01*
X135224767Y-96350100D01*
X135264976Y-96292960D01*
X135319384Y-96268111D01*
X135516198Y-96231321D01*
X135715019Y-96154298D01*
X135896302Y-96042052D01*
X136053872Y-95898407D01*
X136182366Y-95728255D01*
X136277405Y-95537389D01*
X136335756Y-95332310D01*
X136355429Y-95120000D01*
X136335756Y-94907690D01*
X136277405Y-94702611D01*
X136277403Y-94702606D01*
X136277403Y-94702605D01*
X136182367Y-94511746D01*
X136053872Y-94341593D01*
X135896302Y-94197948D01*
X135715019Y-94085702D01*
X135715017Y-94085701D01*
X135615608Y-94047190D01*
X135516198Y-94008679D01*
X135319385Y-93971888D01*
X135257106Y-93940221D01*
X135221833Y-93879908D01*
X135224767Y-93810100D01*
X135264976Y-93752960D01*
X135319384Y-93728111D01*
X135516198Y-93691321D01*
X135715019Y-93614298D01*
X135896302Y-93502052D01*
X136053872Y-93358407D01*
X136182366Y-93188255D01*
X136277405Y-92997389D01*
X136335756Y-92792310D01*
X136355429Y-92580000D01*
X136335756Y-92367690D01*
X136277405Y-92162611D01*
X136277403Y-92162606D01*
X136277403Y-92162605D01*
X136182367Y-91971746D01*
X136053872Y-91801593D01*
X135896302Y-91657948D01*
X135715019Y-91545702D01*
X135715017Y-91545701D01*
X135615608Y-91507190D01*
X135516198Y-91468679D01*
X135319385Y-91431888D01*
X135257106Y-91400221D01*
X135221833Y-91339908D01*
X135224767Y-91270100D01*
X135264976Y-91212960D01*
X135319384Y-91188111D01*
X135516198Y-91151321D01*
X135715019Y-91074298D01*
X135896302Y-90962052D01*
X136053872Y-90818407D01*
X136182366Y-90648255D01*
X136277405Y-90457389D01*
X136335756Y-90252310D01*
X136355429Y-90040000D01*
X136335756Y-89827690D01*
X136277405Y-89622611D01*
X136277403Y-89622606D01*
X136277403Y-89622605D01*
X136182367Y-89431746D01*
X136053872Y-89261593D01*
X135896302Y-89117948D01*
X135715019Y-89005702D01*
X135715017Y-89005701D01*
X135615608Y-88967190D01*
X135516198Y-88928679D01*
X135319385Y-88891888D01*
X135257106Y-88860221D01*
X135221833Y-88799908D01*
X135224767Y-88730100D01*
X135264976Y-88672960D01*
X135319384Y-88648111D01*
X135516198Y-88611321D01*
X135715019Y-88534298D01*
X135896302Y-88422052D01*
X136053872Y-88278407D01*
X136182366Y-88108255D01*
X136277405Y-87917389D01*
X136335756Y-87712310D01*
X136355429Y-87500000D01*
X136335756Y-87287690D01*
X136277405Y-87082611D01*
X136277403Y-87082606D01*
X136277403Y-87082605D01*
X136182367Y-86891746D01*
X136053872Y-86721593D01*
X135896302Y-86577948D01*
X135715019Y-86465702D01*
X135715017Y-86465701D01*
X135615608Y-86427190D01*
X135516198Y-86388679D01*
X135319385Y-86351888D01*
X135257106Y-86320221D01*
X135221833Y-86259908D01*
X135224767Y-86190100D01*
X135264976Y-86132960D01*
X135319384Y-86108111D01*
X135516198Y-86071321D01*
X135715019Y-85994298D01*
X135896302Y-85882052D01*
X136053872Y-85738407D01*
X136182366Y-85568255D01*
X136277405Y-85377389D01*
X136335756Y-85172310D01*
X136355429Y-84960000D01*
X136335756Y-84747690D01*
X136277405Y-84542611D01*
X136277403Y-84542606D01*
X136277403Y-84542605D01*
X136182367Y-84351746D01*
X136053872Y-84181593D01*
X135896302Y-84037948D01*
X135715019Y-83925702D01*
X135715017Y-83925701D01*
X135615608Y-83887190D01*
X135516198Y-83848679D01*
X135343456Y-83816387D01*
X135281176Y-83784719D01*
X135245903Y-83724407D01*
X135248837Y-83654599D01*
X135289046Y-83597459D01*
X135353764Y-83571128D01*
X135366233Y-83570499D01*
X136094864Y-83570499D01*
X136094879Y-83570497D01*
X136094882Y-83570497D01*
X136119987Y-83567586D01*
X136119988Y-83567585D01*
X136119991Y-83567585D01*
X136222765Y-83522206D01*
X136302206Y-83442765D01*
X136347585Y-83339991D01*
X136350500Y-83314865D01*
X136350499Y-81525136D01*
X136350497Y-81525117D01*
X136347586Y-81500012D01*
X136347585Y-81500010D01*
X136347585Y-81500009D01*
X136302206Y-81397235D01*
X136222765Y-81317794D01*
X136222763Y-81317793D01*
X136119992Y-81272415D01*
X136094865Y-81269500D01*
X134305143Y-81269500D01*
X134305117Y-81269502D01*
X134280012Y-81272413D01*
X134280008Y-81272415D01*
X134177235Y-81317793D01*
X134097794Y-81397234D01*
X134052415Y-81500006D01*
X134052415Y-81500008D01*
X134049500Y-81525131D01*
X134049500Y-83314856D01*
X134049502Y-83314882D01*
X134052413Y-83339987D01*
X134052415Y-83339991D01*
X134097793Y-83442764D01*
X134097794Y-83442765D01*
X134177235Y-83522206D01*
X134280009Y-83567585D01*
X134305135Y-83570500D01*
X135033758Y-83570499D01*
X135100795Y-83590183D01*
X135146550Y-83642987D01*
X135156494Y-83712146D01*
X135127469Y-83775702D01*
X135068691Y-83813476D01*
X135056542Y-83816388D01*
X135000116Y-83826935D01*
X134883802Y-83848679D01*
X134883800Y-83848679D01*
X134883798Y-83848680D01*
X134684982Y-83925701D01*
X134684980Y-83925702D01*
X134503699Y-84037947D01*
X134346127Y-84181593D01*
X134217632Y-84351746D01*
X134122596Y-84542605D01*
X134122596Y-84542607D01*
X134064244Y-84747689D01*
X134044571Y-84959999D01*
X134044571Y-84960000D01*
X134064244Y-85172310D01*
X134122596Y-85377392D01*
X134122596Y-85377394D01*
X134217632Y-85568253D01*
X134217634Y-85568255D01*
X134346128Y-85738407D01*
X134503698Y-85882052D01*
X134684981Y-85994298D01*
X134883802Y-86071321D01*
X135080613Y-86108111D01*
X135142893Y-86139779D01*
X135178166Y-86200092D01*
X135175232Y-86269900D01*
X135135023Y-86327040D01*
X135080613Y-86351888D01*
X134883802Y-86388679D01*
X134883799Y-86388679D01*
X134883799Y-86388680D01*
X134684982Y-86465701D01*
X134684980Y-86465702D01*
X134503699Y-86577947D01*
X134346127Y-86721593D01*
X134217632Y-86891746D01*
X134122596Y-87082605D01*
X134122596Y-87082607D01*
X134064244Y-87287689D01*
X134044571Y-87499999D01*
X134044571Y-87500000D01*
X134064244Y-87712310D01*
X134122596Y-87917392D01*
X134122596Y-87917394D01*
X134217632Y-88108253D01*
X134217634Y-88108255D01*
X134346128Y-88278407D01*
X134503698Y-88422052D01*
X134684981Y-88534298D01*
X134883802Y-88611321D01*
X135080613Y-88648111D01*
X135142893Y-88679779D01*
X135178166Y-88740092D01*
X135175232Y-88809900D01*
X135135023Y-88867040D01*
X135080613Y-88891888D01*
X134883802Y-88928679D01*
X134883799Y-88928679D01*
X134883799Y-88928680D01*
X134684982Y-89005701D01*
X134684980Y-89005702D01*
X134503699Y-89117947D01*
X134346127Y-89261593D01*
X134217632Y-89431746D01*
X134122596Y-89622605D01*
X134122596Y-89622607D01*
X134064244Y-89827689D01*
X134044571Y-90039999D01*
X134044571Y-90040000D01*
X134064244Y-90252310D01*
X134122596Y-90457392D01*
X134122596Y-90457394D01*
X134217632Y-90648253D01*
X134217634Y-90648255D01*
X134346128Y-90818407D01*
X134503698Y-90962052D01*
X134684981Y-91074298D01*
X134883802Y-91151321D01*
X135080613Y-91188111D01*
X135142893Y-91219779D01*
X135178166Y-91280092D01*
X135175232Y-91349900D01*
X135135023Y-91407040D01*
X135080613Y-91431888D01*
X134883802Y-91468679D01*
X134883799Y-91468679D01*
X134883799Y-91468680D01*
X134684982Y-91545701D01*
X134684980Y-91545702D01*
X134503699Y-91657947D01*
X134346127Y-91801593D01*
X134217632Y-91971746D01*
X134122596Y-92162605D01*
X134122596Y-92162607D01*
X134064244Y-92367689D01*
X134044571Y-92579999D01*
X134044571Y-92580000D01*
X134064244Y-92792310D01*
X134122596Y-92997392D01*
X134122596Y-92997394D01*
X134217632Y-93188253D01*
X134217634Y-93188255D01*
X134346128Y-93358407D01*
X134503698Y-93502052D01*
X134684981Y-93614298D01*
X134883802Y-93691321D01*
X135080613Y-93728111D01*
X135142893Y-93759779D01*
X135178166Y-93820092D01*
X135175232Y-93889900D01*
X135135023Y-93947040D01*
X135080613Y-93971888D01*
X134883802Y-94008679D01*
X134883799Y-94008679D01*
X134883799Y-94008680D01*
X134684982Y-94085701D01*
X134684980Y-94085702D01*
X134503699Y-94197947D01*
X134346127Y-94341593D01*
X134217632Y-94511746D01*
X134122596Y-94702605D01*
X134122596Y-94702607D01*
X134064244Y-94907689D01*
X134044571Y-95119999D01*
X134044571Y-95120000D01*
X134064244Y-95332310D01*
X134122596Y-95537392D01*
X134122596Y-95537394D01*
X134217632Y-95728253D01*
X134217634Y-95728255D01*
X134346128Y-95898407D01*
X134503698Y-96042052D01*
X134684981Y-96154298D01*
X134883802Y-96231321D01*
X135080613Y-96268111D01*
X135142893Y-96299779D01*
X135178166Y-96360092D01*
X135175232Y-96429900D01*
X135135023Y-96487040D01*
X135080613Y-96511888D01*
X134883802Y-96548679D01*
X134883799Y-96548679D01*
X134883799Y-96548680D01*
X134684982Y-96625701D01*
X134684980Y-96625702D01*
X134503699Y-96737947D01*
X134346127Y-96881593D01*
X134217632Y-97051746D01*
X134122596Y-97242605D01*
X134122596Y-97242607D01*
X134064244Y-97447689D01*
X134044571Y-97659999D01*
X134044571Y-97660000D01*
X134064244Y-97872310D01*
X134122596Y-98077392D01*
X134122596Y-98077394D01*
X134217632Y-98268253D01*
X134217634Y-98268255D01*
X134346128Y-98438407D01*
X134503698Y-98582052D01*
X134684981Y-98694298D01*
X134713961Y-98705525D01*
X134769362Y-98748095D01*
X134792954Y-98813861D01*
X134777244Y-98881942D01*
X134727222Y-98930722D01*
X134721573Y-98933533D01*
X134522422Y-99026399D01*
X134522420Y-99026400D01*
X134328926Y-99161886D01*
X134328920Y-99161891D01*
X134161891Y-99328920D01*
X134161886Y-99328926D01*
X134026400Y-99522420D01*
X134026399Y-99522422D01*
X133926570Y-99736507D01*
X133926567Y-99736513D01*
X133869364Y-99949999D01*
X72700000Y-99949999D01*
X72700000Y-79102155D01*
X78650000Y-79102155D01*
X78650000Y-79750000D01*
X79566988Y-79750000D01*
X79534075Y-79807007D01*
X79500000Y-79934174D01*
X79500000Y-80065826D01*
X79534075Y-80192993D01*
X79566988Y-80250000D01*
X78650000Y-80250000D01*
X78650000Y-80897844D01*
X78656401Y-80957372D01*
X78656403Y-80957379D01*
X78706645Y-81092086D01*
X78706649Y-81092093D01*
X78792809Y-81207187D01*
X78792812Y-81207190D01*
X78907906Y-81293350D01*
X78907913Y-81293354D01*
X79042620Y-81343596D01*
X79042627Y-81343598D01*
X79102155Y-81349999D01*
X79102172Y-81350000D01*
X79750000Y-81350000D01*
X79750000Y-80433012D01*
X79807007Y-80465925D01*
X79934174Y-80500000D01*
X80065826Y-80500000D01*
X80192993Y-80465925D01*
X80250000Y-80433012D01*
X80250000Y-81350000D01*
X80897828Y-81350000D01*
X80897844Y-81349999D01*
X80957372Y-81343598D01*
X80957379Y-81343596D01*
X81092086Y-81293354D01*
X81092093Y-81293350D01*
X81207187Y-81207190D01*
X81207190Y-81207187D01*
X81293350Y-81092093D01*
X81293354Y-81092086D01*
X81343596Y-80957379D01*
X81343598Y-80957372D01*
X81349999Y-80897844D01*
X81350000Y-80897827D01*
X81350000Y-80703268D01*
X81369685Y-80636229D01*
X81422489Y-80590474D01*
X81491647Y-80580530D01*
X81555203Y-80609555D01*
X81572950Y-80628537D01*
X81686128Y-80778407D01*
X81843698Y-80922052D01*
X82024981Y-81034298D01*
X82223802Y-81111321D01*
X82433390Y-81150500D01*
X82433392Y-81150500D01*
X82646608Y-81150500D01*
X82646610Y-81150500D01*
X82856198Y-81111321D01*
X83055019Y-81034298D01*
X83236302Y-80922052D01*
X83393872Y-80778407D01*
X83522366Y-80608255D01*
X83576270Y-80500000D01*
X83617403Y-80417394D01*
X83617403Y-80417393D01*
X83617405Y-80417389D01*
X83675756Y-80212310D01*
X83686529Y-80096047D01*
X83712315Y-80031111D01*
X83754622Y-80000804D01*
X83863130Y-80000804D01*
X83899503Y-80021668D01*
X83931693Y-80083681D01*
X83933470Y-80096047D01*
X83944244Y-80212310D01*
X83997675Y-80400099D01*
X84002596Y-80417392D01*
X84002596Y-80417394D01*
X84097632Y-80608253D01*
X84169385Y-80703268D01*
X84226128Y-80778407D01*
X84383698Y-80922052D01*
X84564981Y-81034298D01*
X84763802Y-81111321D01*
X84973390Y-81150500D01*
X84973392Y-81150500D01*
X85186608Y-81150500D01*
X85186610Y-81150500D01*
X85396198Y-81111321D01*
X85595019Y-81034298D01*
X85776302Y-80922052D01*
X85933872Y-80778407D01*
X86062366Y-80608255D01*
X86116270Y-80500000D01*
X86157403Y-80417394D01*
X86157403Y-80417393D01*
X86157405Y-80417389D01*
X86215756Y-80212310D01*
X86226529Y-80096047D01*
X86252315Y-80031111D01*
X86294622Y-80000804D01*
X86403130Y-80000804D01*
X86439503Y-80021668D01*
X86471693Y-80083681D01*
X86473470Y-80096047D01*
X86484244Y-80212310D01*
X86537675Y-80400099D01*
X86542596Y-80417392D01*
X86542596Y-80417394D01*
X86637632Y-80608253D01*
X86709385Y-80703268D01*
X86766128Y-80778407D01*
X86923698Y-80922052D01*
X87104981Y-81034298D01*
X87303802Y-81111321D01*
X87513390Y-81150500D01*
X87513392Y-81150500D01*
X87726608Y-81150500D01*
X87726610Y-81150500D01*
X87936198Y-81111321D01*
X88135019Y-81034298D01*
X88316302Y-80922052D01*
X88473872Y-80778407D01*
X88602366Y-80608255D01*
X88656270Y-80500000D01*
X88697403Y-80417394D01*
X88697403Y-80417393D01*
X88697405Y-80417389D01*
X88755756Y-80212310D01*
X88766529Y-80096047D01*
X88792315Y-80031111D01*
X88834622Y-80000804D01*
X88943130Y-80000804D01*
X88979503Y-80021668D01*
X89011693Y-80083681D01*
X89013470Y-80096047D01*
X89024244Y-80212310D01*
X89077675Y-80400099D01*
X89082596Y-80417392D01*
X89082596Y-80417394D01*
X89177632Y-80608253D01*
X89249385Y-80703268D01*
X89306128Y-80778407D01*
X89463698Y-80922052D01*
X89644981Y-81034298D01*
X89843802Y-81111321D01*
X90053390Y-81150500D01*
X90053392Y-81150500D01*
X90266608Y-81150500D01*
X90266610Y-81150500D01*
X90476198Y-81111321D01*
X90675019Y-81034298D01*
X90856302Y-80922052D01*
X91013872Y-80778407D01*
X91142366Y-80608255D01*
X91196270Y-80500000D01*
X91237403Y-80417394D01*
X91237403Y-80417393D01*
X91237405Y-80417389D01*
X91295756Y-80212310D01*
X91306529Y-80096047D01*
X91332315Y-80031111D01*
X91374622Y-80000804D01*
X91483130Y-80000804D01*
X91519503Y-80021668D01*
X91551693Y-80083681D01*
X91553470Y-80096047D01*
X91564244Y-80212310D01*
X91617675Y-80400099D01*
X91622596Y-80417392D01*
X91622596Y-80417394D01*
X91717632Y-80608253D01*
X91789385Y-80703268D01*
X91846128Y-80778407D01*
X92003698Y-80922052D01*
X92184981Y-81034298D01*
X92383802Y-81111321D01*
X92593390Y-81150500D01*
X92593392Y-81150500D01*
X92806608Y-81150500D01*
X92806610Y-81150500D01*
X93016198Y-81111321D01*
X93215019Y-81034298D01*
X93396302Y-80922052D01*
X93553872Y-80778407D01*
X93682366Y-80608255D01*
X93749325Y-80473781D01*
X93796825Y-80422548D01*
X93864488Y-80405126D01*
X93930828Y-80427051D01*
X93972705Y-80476651D01*
X94066399Y-80677578D01*
X94201894Y-80871082D01*
X94368917Y-81038105D01*
X94562421Y-81173600D01*
X94776507Y-81273429D01*
X94776516Y-81273433D01*
X94990000Y-81330634D01*
X94990000Y-80433012D01*
X95047007Y-80465925D01*
X95174174Y-80500000D01*
X95305826Y-80500000D01*
X95432993Y-80465925D01*
X95490000Y-80433012D01*
X95490000Y-81330633D01*
X95703483Y-81273433D01*
X95703492Y-81273429D01*
X95917578Y-81173600D01*
X96111082Y-81038105D01*
X96278105Y-80871082D01*
X96413600Y-80677578D01*
X96507294Y-80476651D01*
X96553466Y-80424212D01*
X96620660Y-80405060D01*
X96687541Y-80425276D01*
X96730676Y-80473785D01*
X96797632Y-80608253D01*
X96869385Y-80703268D01*
X96926128Y-80778407D01*
X97083698Y-80922052D01*
X97264981Y-81034298D01*
X97463802Y-81111321D01*
X97673390Y-81150500D01*
X97673392Y-81150500D01*
X97886608Y-81150500D01*
X97886610Y-81150500D01*
X98096198Y-81111321D01*
X98295019Y-81034298D01*
X98476302Y-80922052D01*
X98633872Y-80778407D01*
X98762366Y-80608255D01*
X98816270Y-80500000D01*
X98857403Y-80417394D01*
X98857403Y-80417393D01*
X98857405Y-80417389D01*
X98915756Y-80212310D01*
X98926529Y-80096047D01*
X98952315Y-80031111D01*
X98994622Y-80000804D01*
X99103130Y-80000804D01*
X99139503Y-80021668D01*
X99171693Y-80083681D01*
X99173470Y-80096047D01*
X99184244Y-80212310D01*
X99237675Y-80400099D01*
X99242596Y-80417392D01*
X99242596Y-80417394D01*
X99337632Y-80608253D01*
X99409385Y-80703268D01*
X99466128Y-80778407D01*
X99623698Y-80922052D01*
X99804981Y-81034298D01*
X100003802Y-81111321D01*
X100213390Y-81150500D01*
X100213392Y-81150500D01*
X100426608Y-81150500D01*
X100426610Y-81150500D01*
X100636198Y-81111321D01*
X100835019Y-81034298D01*
X101016302Y-80922052D01*
X101173872Y-80778407D01*
X101302366Y-80608255D01*
X101356270Y-80500000D01*
X101397403Y-80417394D01*
X101397403Y-80417393D01*
X101397405Y-80417389D01*
X101455756Y-80212310D01*
X101466529Y-80096047D01*
X101492315Y-80031111D01*
X101534622Y-80000804D01*
X101643130Y-80000804D01*
X101679503Y-80021668D01*
X101711693Y-80083681D01*
X101713470Y-80096047D01*
X101724244Y-80212310D01*
X101777675Y-80400099D01*
X101782596Y-80417392D01*
X101782596Y-80417394D01*
X101877632Y-80608253D01*
X101949385Y-80703268D01*
X102006128Y-80778407D01*
X102163698Y-80922052D01*
X102344981Y-81034298D01*
X102543802Y-81111321D01*
X102753390Y-81150500D01*
X102753392Y-81150500D01*
X102966608Y-81150500D01*
X102966610Y-81150500D01*
X103176198Y-81111321D01*
X103375019Y-81034298D01*
X103556302Y-80922052D01*
X103713872Y-80778407D01*
X103842366Y-80608255D01*
X103896270Y-80500000D01*
X103937403Y-80417394D01*
X103937403Y-80417393D01*
X103937405Y-80417389D01*
X103995756Y-80212310D01*
X104006529Y-80096047D01*
X104032315Y-80031111D01*
X104074622Y-80000804D01*
X104183130Y-80000804D01*
X104219503Y-80021668D01*
X104251693Y-80083681D01*
X104253470Y-80096047D01*
X104264244Y-80212310D01*
X104317675Y-80400099D01*
X104322596Y-80417392D01*
X104322596Y-80417394D01*
X104417632Y-80608253D01*
X104489385Y-80703268D01*
X104546128Y-80778407D01*
X104703698Y-80922052D01*
X104884981Y-81034298D01*
X105083802Y-81111321D01*
X105293390Y-81150500D01*
X105293392Y-81150500D01*
X105506608Y-81150500D01*
X105506610Y-81150500D01*
X105716198Y-81111321D01*
X105915019Y-81034298D01*
X106096302Y-80922052D01*
X106253872Y-80778407D01*
X106382366Y-80608255D01*
X106436270Y-80500000D01*
X106477403Y-80417394D01*
X106477403Y-80417393D01*
X106477405Y-80417389D01*
X106535756Y-80212310D01*
X106546529Y-80096047D01*
X106572315Y-80031111D01*
X106614622Y-80000804D01*
X106723130Y-80000804D01*
X106759503Y-80021668D01*
X106791693Y-80083681D01*
X106793470Y-80096047D01*
X106804244Y-80212310D01*
X106857675Y-80400099D01*
X106862596Y-80417392D01*
X106862596Y-80417394D01*
X106957632Y-80608253D01*
X107029385Y-80703268D01*
X107086128Y-80778407D01*
X107243698Y-80922052D01*
X107424981Y-81034298D01*
X107623802Y-81111321D01*
X107833390Y-81150500D01*
X107833392Y-81150500D01*
X108046608Y-81150500D01*
X108046610Y-81150500D01*
X108256198Y-81111321D01*
X108455019Y-81034298D01*
X108636302Y-80922052D01*
X108793872Y-80778407D01*
X108922366Y-80608255D01*
X108976270Y-80500000D01*
X109017403Y-80417394D01*
X109017403Y-80417393D01*
X109017405Y-80417389D01*
X109075756Y-80212310D01*
X109086529Y-80096047D01*
X109112315Y-80031111D01*
X109154622Y-80000804D01*
X109263130Y-80000804D01*
X109299503Y-80021668D01*
X109331693Y-80083681D01*
X109333470Y-80096047D01*
X109344244Y-80212310D01*
X109397675Y-80400099D01*
X109402596Y-80417392D01*
X109402596Y-80417394D01*
X109497632Y-80608253D01*
X109569385Y-80703268D01*
X109626128Y-80778407D01*
X109783698Y-80922052D01*
X109964981Y-81034298D01*
X110163802Y-81111321D01*
X110373390Y-81150500D01*
X110373392Y-81150500D01*
X110586608Y-81150500D01*
X110586610Y-81150500D01*
X110796198Y-81111321D01*
X110995019Y-81034298D01*
X111176302Y-80922052D01*
X111333872Y-80778407D01*
X111462366Y-80608255D01*
X111516270Y-80500000D01*
X111557403Y-80417394D01*
X111557403Y-80417393D01*
X111557405Y-80417389D01*
X111615756Y-80212310D01*
X111626529Y-80096047D01*
X111652315Y-80031111D01*
X111694622Y-80000804D01*
X111803130Y-80000804D01*
X111839503Y-80021668D01*
X111871693Y-80083681D01*
X111873470Y-80096047D01*
X111884244Y-80212310D01*
X111937675Y-80400099D01*
X111942596Y-80417392D01*
X111942596Y-80417394D01*
X112037632Y-80608253D01*
X112109385Y-80703268D01*
X112166128Y-80778407D01*
X112323698Y-80922052D01*
X112504981Y-81034298D01*
X112703802Y-81111321D01*
X112913390Y-81150500D01*
X112913392Y-81150500D01*
X113126608Y-81150500D01*
X113126610Y-81150500D01*
X113336198Y-81111321D01*
X113535019Y-81034298D01*
X113716302Y-80922052D01*
X113873872Y-80778407D01*
X114002366Y-80608255D01*
X114056270Y-80500000D01*
X114097403Y-80417394D01*
X114097403Y-80417393D01*
X114097405Y-80417389D01*
X114155756Y-80212310D01*
X114166529Y-80096047D01*
X114192315Y-80031111D01*
X114234622Y-80000804D01*
X114343130Y-80000804D01*
X114379503Y-80021668D01*
X114411693Y-80083681D01*
X114413470Y-80096047D01*
X114424244Y-80212310D01*
X114477675Y-80400099D01*
X114482596Y-80417392D01*
X114482596Y-80417394D01*
X114577632Y-80608253D01*
X114649385Y-80703268D01*
X114706128Y-80778407D01*
X114863698Y-80922052D01*
X115044981Y-81034298D01*
X115243802Y-81111321D01*
X115453390Y-81150500D01*
X115453392Y-81150500D01*
X115666608Y-81150500D01*
X115666610Y-81150500D01*
X115876198Y-81111321D01*
X116075019Y-81034298D01*
X116256302Y-80922052D01*
X116413872Y-80778407D01*
X116542366Y-80608255D01*
X116596270Y-80500000D01*
X116637403Y-80417394D01*
X116637403Y-80417393D01*
X116637405Y-80417389D01*
X116695756Y-80212310D01*
X116706529Y-80096047D01*
X116732315Y-80031111D01*
X116774622Y-80000804D01*
X116883130Y-80000804D01*
X116919503Y-80021668D01*
X116951693Y-80083681D01*
X116953470Y-80096047D01*
X116964244Y-80212310D01*
X117017675Y-80400099D01*
X117022596Y-80417392D01*
X117022596Y-80417394D01*
X117117632Y-80608253D01*
X117189385Y-80703268D01*
X117246128Y-80778407D01*
X117403698Y-80922052D01*
X117584981Y-81034298D01*
X117783802Y-81111321D01*
X117993390Y-81150500D01*
X117993392Y-81150500D01*
X118206608Y-81150500D01*
X118206610Y-81150500D01*
X118416198Y-81111321D01*
X118615019Y-81034298D01*
X118796302Y-80922052D01*
X118953872Y-80778407D01*
X119082366Y-80608255D01*
X119136270Y-80500000D01*
X119177403Y-80417394D01*
X119177403Y-80417393D01*
X119177405Y-80417389D01*
X119235756Y-80212310D01*
X119246529Y-80096047D01*
X119272315Y-80031111D01*
X119314622Y-80000804D01*
X119423130Y-80000804D01*
X119459503Y-80021668D01*
X119491693Y-80083681D01*
X119493470Y-80096047D01*
X119504244Y-80212310D01*
X119557675Y-80400099D01*
X119562596Y-80417392D01*
X119562596Y-80417394D01*
X119657632Y-80608253D01*
X119729385Y-80703268D01*
X119786128Y-80778407D01*
X119943698Y-80922052D01*
X120124981Y-81034298D01*
X120323802Y-81111321D01*
X120533390Y-81150500D01*
X120533392Y-81150500D01*
X120746608Y-81150500D01*
X120746610Y-81150500D01*
X120956198Y-81111321D01*
X121155019Y-81034298D01*
X121336302Y-80922052D01*
X121493872Y-80778407D01*
X121622366Y-80608255D01*
X121676270Y-80500000D01*
X121717403Y-80417394D01*
X121717403Y-80417393D01*
X121717405Y-80417389D01*
X121775756Y-80212310D01*
X121786529Y-80096047D01*
X121812315Y-80031111D01*
X121854622Y-80000804D01*
X121963130Y-80000804D01*
X121999503Y-80021668D01*
X122031693Y-80083681D01*
X122033470Y-80096047D01*
X122044244Y-80212310D01*
X122097675Y-80400099D01*
X122102596Y-80417392D01*
X122102596Y-80417394D01*
X122197632Y-80608253D01*
X122269385Y-80703268D01*
X122326128Y-80778407D01*
X122483698Y-80922052D01*
X122664981Y-81034298D01*
X122863802Y-81111321D01*
X123073390Y-81150500D01*
X123073392Y-81150500D01*
X123286608Y-81150500D01*
X123286610Y-81150500D01*
X123496198Y-81111321D01*
X123695019Y-81034298D01*
X123876302Y-80922052D01*
X124033872Y-80778407D01*
X124162366Y-80608255D01*
X124216270Y-80500000D01*
X124257403Y-80417394D01*
X124257403Y-80417393D01*
X124257405Y-80417389D01*
X124315756Y-80212310D01*
X124326529Y-80096047D01*
X124352315Y-80031111D01*
X124394622Y-80000804D01*
X124503130Y-80000804D01*
X124539503Y-80021668D01*
X124571693Y-80083681D01*
X124573470Y-80096047D01*
X124584244Y-80212310D01*
X124637675Y-80400099D01*
X124642596Y-80417392D01*
X124642596Y-80417394D01*
X124737632Y-80608253D01*
X124809385Y-80703268D01*
X124866128Y-80778407D01*
X125023698Y-80922052D01*
X125204981Y-81034298D01*
X125403802Y-81111321D01*
X125613390Y-81150500D01*
X125613392Y-81150500D01*
X125826608Y-81150500D01*
X125826610Y-81150500D01*
X126036198Y-81111321D01*
X126235019Y-81034298D01*
X126416302Y-80922052D01*
X126573872Y-80778407D01*
X126702366Y-80608255D01*
X126756270Y-80500000D01*
X126797403Y-80417394D01*
X126797403Y-80417393D01*
X126797405Y-80417389D01*
X126855756Y-80212310D01*
X126875429Y-80000000D01*
X126855756Y-79787690D01*
X126797405Y-79582611D01*
X126797403Y-79582606D01*
X126797403Y-79582605D01*
X126702367Y-79391746D01*
X126573872Y-79221593D01*
X126416302Y-79077948D01*
X126235019Y-78965702D01*
X126235017Y-78965701D01*
X126085829Y-78907906D01*
X126036198Y-78888679D01*
X125826610Y-78849500D01*
X125613390Y-78849500D01*
X125403802Y-78888679D01*
X125403799Y-78888679D01*
X125403799Y-78888680D01*
X125204982Y-78965701D01*
X125204980Y-78965702D01*
X125023699Y-79077947D01*
X124866127Y-79221593D01*
X124737632Y-79391746D01*
X124642596Y-79582605D01*
X124642596Y-79582607D01*
X124584244Y-79787689D01*
X124573471Y-79903951D01*
X124547685Y-79968888D01*
X124503130Y-80000804D01*
X124394622Y-80000804D01*
X124396869Y-79999194D01*
X124360497Y-79978331D01*
X124328307Y-79916318D01*
X124326529Y-79903951D01*
X124325849Y-79896613D01*
X124315756Y-79787690D01*
X124257405Y-79582611D01*
X124257403Y-79582606D01*
X124257403Y-79582605D01*
X124162367Y-79391746D01*
X124033872Y-79221593D01*
X123876302Y-79077948D01*
X123695019Y-78965702D01*
X123695017Y-78965701D01*
X123545829Y-78907906D01*
X123496198Y-78888679D01*
X123286610Y-78849500D01*
X123073390Y-78849500D01*
X122863802Y-78888679D01*
X122863799Y-78888679D01*
X122863799Y-78888680D01*
X122664982Y-78965701D01*
X122664980Y-78965702D01*
X122483699Y-79077947D01*
X122326127Y-79221593D01*
X122197632Y-79391746D01*
X122102596Y-79582605D01*
X122102596Y-79582607D01*
X122044244Y-79787689D01*
X122033471Y-79903951D01*
X122007685Y-79968888D01*
X121963130Y-80000804D01*
X121854622Y-80000804D01*
X121856869Y-79999194D01*
X121820497Y-79978331D01*
X121788307Y-79916318D01*
X121786529Y-79903951D01*
X121785849Y-79896613D01*
X121775756Y-79787690D01*
X121717405Y-79582611D01*
X121717403Y-79582606D01*
X121717403Y-79582605D01*
X121622367Y-79391746D01*
X121493872Y-79221593D01*
X121336302Y-79077948D01*
X121155019Y-78965702D01*
X121155017Y-78965701D01*
X121005829Y-78907906D01*
X120956198Y-78888679D01*
X120746610Y-78849500D01*
X120533390Y-78849500D01*
X120323802Y-78888679D01*
X120323799Y-78888679D01*
X120323799Y-78888680D01*
X120124982Y-78965701D01*
X120124980Y-78965702D01*
X119943699Y-79077947D01*
X119786127Y-79221593D01*
X119657632Y-79391746D01*
X119562596Y-79582605D01*
X119562596Y-79582607D01*
X119504244Y-79787689D01*
X119493471Y-79903951D01*
X119467685Y-79968888D01*
X119423130Y-80000804D01*
X119314622Y-80000804D01*
X119316869Y-79999194D01*
X119280497Y-79978331D01*
X119248307Y-79916318D01*
X119246529Y-79903951D01*
X119245849Y-79896613D01*
X119235756Y-79787690D01*
X119177405Y-79582611D01*
X119177403Y-79582606D01*
X119177403Y-79582605D01*
X119082367Y-79391746D01*
X118953872Y-79221593D01*
X118796302Y-79077948D01*
X118615019Y-78965702D01*
X118615017Y-78965701D01*
X118465829Y-78907906D01*
X118416198Y-78888679D01*
X118206610Y-78849500D01*
X117993390Y-78849500D01*
X117783802Y-78888679D01*
X117783799Y-78888679D01*
X117783799Y-78888680D01*
X117584982Y-78965701D01*
X117584980Y-78965702D01*
X117403699Y-79077947D01*
X117246127Y-79221593D01*
X117117632Y-79391746D01*
X117022596Y-79582605D01*
X117022596Y-79582607D01*
X116964244Y-79787689D01*
X116953471Y-79903951D01*
X116927685Y-79968888D01*
X116883130Y-80000804D01*
X116774622Y-80000804D01*
X116776869Y-79999194D01*
X116740497Y-79978331D01*
X116708307Y-79916318D01*
X116706529Y-79903951D01*
X116705849Y-79896613D01*
X116695756Y-79787690D01*
X116637405Y-79582611D01*
X116637403Y-79582606D01*
X116637403Y-79582605D01*
X116542367Y-79391746D01*
X116413872Y-79221593D01*
X116256302Y-79077948D01*
X116075019Y-78965702D01*
X116075017Y-78965701D01*
X115925829Y-78907906D01*
X115876198Y-78888679D01*
X115666610Y-78849500D01*
X115453390Y-78849500D01*
X115243802Y-78888679D01*
X115243799Y-78888679D01*
X115243799Y-78888680D01*
X115044982Y-78965701D01*
X115044980Y-78965702D01*
X114863699Y-79077947D01*
X114706127Y-79221593D01*
X114577632Y-79391746D01*
X114482596Y-79582605D01*
X114482596Y-79582607D01*
X114424244Y-79787689D01*
X114413471Y-79903951D01*
X114387685Y-79968888D01*
X114343130Y-80000804D01*
X114234622Y-80000804D01*
X114236869Y-79999194D01*
X114200497Y-79978331D01*
X114168307Y-79916318D01*
X114166529Y-79903951D01*
X114165849Y-79896613D01*
X114155756Y-79787690D01*
X114097405Y-79582611D01*
X114097403Y-79582606D01*
X114097403Y-79582605D01*
X114002367Y-79391746D01*
X113873872Y-79221593D01*
X113716302Y-79077948D01*
X113535019Y-78965702D01*
X113535017Y-78965701D01*
X113385829Y-78907906D01*
X113336198Y-78888679D01*
X113126610Y-78849500D01*
X112913390Y-78849500D01*
X112703802Y-78888679D01*
X112703799Y-78888679D01*
X112703799Y-78888680D01*
X112504982Y-78965701D01*
X112504980Y-78965702D01*
X112323699Y-79077947D01*
X112166127Y-79221593D01*
X112037632Y-79391746D01*
X111942596Y-79582605D01*
X111942596Y-79582607D01*
X111884244Y-79787689D01*
X111873471Y-79903951D01*
X111847685Y-79968888D01*
X111803130Y-80000804D01*
X111694622Y-80000804D01*
X111696869Y-79999194D01*
X111660497Y-79978331D01*
X111628307Y-79916318D01*
X111626529Y-79903951D01*
X111625849Y-79896613D01*
X111615756Y-79787690D01*
X111557405Y-79582611D01*
X111557403Y-79582606D01*
X111557403Y-79582605D01*
X111462367Y-79391746D01*
X111333872Y-79221593D01*
X111176302Y-79077948D01*
X110995019Y-78965702D01*
X110995017Y-78965701D01*
X110845829Y-78907906D01*
X110796198Y-78888679D01*
X110586610Y-78849500D01*
X110373390Y-78849500D01*
X110163802Y-78888679D01*
X110163799Y-78888679D01*
X110163799Y-78888680D01*
X109964982Y-78965701D01*
X109964980Y-78965702D01*
X109783699Y-79077947D01*
X109626127Y-79221593D01*
X109497632Y-79391746D01*
X109402596Y-79582605D01*
X109402596Y-79582607D01*
X109344244Y-79787689D01*
X109333471Y-79903951D01*
X109307685Y-79968888D01*
X109263130Y-80000804D01*
X109154622Y-80000804D01*
X109156869Y-79999194D01*
X109120497Y-79978331D01*
X109088307Y-79916318D01*
X109086529Y-79903951D01*
X109085849Y-79896613D01*
X109075756Y-79787690D01*
X109017405Y-79582611D01*
X109017403Y-79582606D01*
X109017403Y-79582605D01*
X108922367Y-79391746D01*
X108793872Y-79221593D01*
X108636302Y-79077948D01*
X108455019Y-78965702D01*
X108455017Y-78965701D01*
X108305829Y-78907906D01*
X108256198Y-78888679D01*
X108046610Y-78849500D01*
X107833390Y-78849500D01*
X107623802Y-78888679D01*
X107623799Y-78888679D01*
X107623799Y-78888680D01*
X107424982Y-78965701D01*
X107424980Y-78965702D01*
X107243699Y-79077947D01*
X107086127Y-79221593D01*
X106957632Y-79391746D01*
X106862596Y-79582605D01*
X106862596Y-79582607D01*
X106804244Y-79787689D01*
X106793471Y-79903951D01*
X106767685Y-79968888D01*
X106723130Y-80000804D01*
X106614622Y-80000804D01*
X106616869Y-79999194D01*
X106580497Y-79978331D01*
X106548307Y-79916318D01*
X106546529Y-79903951D01*
X106545849Y-79896613D01*
X106535756Y-79787690D01*
X106477405Y-79582611D01*
X106477403Y-79582606D01*
X106477403Y-79582605D01*
X106382367Y-79391746D01*
X106253872Y-79221593D01*
X106096302Y-79077948D01*
X105915019Y-78965702D01*
X105915017Y-78965701D01*
X105765829Y-78907906D01*
X105716198Y-78888679D01*
X105506610Y-78849500D01*
X105293390Y-78849500D01*
X105083802Y-78888679D01*
X105083799Y-78888679D01*
X105083799Y-78888680D01*
X104884982Y-78965701D01*
X104884980Y-78965702D01*
X104703699Y-79077947D01*
X104546127Y-79221593D01*
X104417632Y-79391746D01*
X104322596Y-79582605D01*
X104322596Y-79582607D01*
X104264244Y-79787689D01*
X104253471Y-79903951D01*
X104227685Y-79968888D01*
X104183130Y-80000804D01*
X104074622Y-80000804D01*
X104076869Y-79999194D01*
X104040497Y-79978331D01*
X104008307Y-79916318D01*
X104006529Y-79903951D01*
X104005849Y-79896613D01*
X103995756Y-79787690D01*
X103937405Y-79582611D01*
X103937403Y-79582606D01*
X103937403Y-79582605D01*
X103842367Y-79391746D01*
X103713872Y-79221593D01*
X103556302Y-79077948D01*
X103375019Y-78965702D01*
X103375017Y-78965701D01*
X103225829Y-78907906D01*
X103176198Y-78888679D01*
X102966610Y-78849500D01*
X102753390Y-78849500D01*
X102543802Y-78888679D01*
X102543799Y-78888679D01*
X102543799Y-78888680D01*
X102344982Y-78965701D01*
X102344980Y-78965702D01*
X102163699Y-79077947D01*
X102006127Y-79221593D01*
X101877632Y-79391746D01*
X101782596Y-79582605D01*
X101782596Y-79582607D01*
X101724244Y-79787689D01*
X101713471Y-79903951D01*
X101687685Y-79968888D01*
X101643130Y-80000804D01*
X101534622Y-80000804D01*
X101536869Y-79999194D01*
X101500497Y-79978331D01*
X101468307Y-79916318D01*
X101466529Y-79903951D01*
X101465849Y-79896613D01*
X101455756Y-79787690D01*
X101397405Y-79582611D01*
X101397403Y-79582606D01*
X101397403Y-79582605D01*
X101302367Y-79391746D01*
X101173872Y-79221593D01*
X101016302Y-79077948D01*
X100835019Y-78965702D01*
X100835017Y-78965701D01*
X100685829Y-78907906D01*
X100636198Y-78888679D01*
X100426610Y-78849500D01*
X100213390Y-78849500D01*
X100003802Y-78888679D01*
X100003799Y-78888679D01*
X100003799Y-78888680D01*
X99804982Y-78965701D01*
X99804980Y-78965702D01*
X99623699Y-79077947D01*
X99466127Y-79221593D01*
X99337632Y-79391746D01*
X99242596Y-79582605D01*
X99242596Y-79582607D01*
X99184244Y-79787689D01*
X99173471Y-79903951D01*
X99147685Y-79968888D01*
X99103130Y-80000804D01*
X98994622Y-80000804D01*
X98996869Y-79999194D01*
X98960497Y-79978331D01*
X98928307Y-79916318D01*
X98926529Y-79903951D01*
X98925849Y-79896613D01*
X98915756Y-79787690D01*
X98857405Y-79582611D01*
X98857403Y-79582606D01*
X98857403Y-79582605D01*
X98762367Y-79391746D01*
X98633872Y-79221593D01*
X98476302Y-79077948D01*
X98295019Y-78965702D01*
X98295017Y-78965701D01*
X98145829Y-78907906D01*
X98096198Y-78888679D01*
X97886610Y-78849500D01*
X97673390Y-78849500D01*
X97463802Y-78888679D01*
X97463799Y-78888679D01*
X97463799Y-78888680D01*
X97264982Y-78965701D01*
X97264980Y-78965702D01*
X97083699Y-79077947D01*
X96926127Y-79221593D01*
X96797634Y-79391744D01*
X96730676Y-79526215D01*
X96683173Y-79577452D01*
X96615510Y-79594873D01*
X96549170Y-79572947D01*
X96507294Y-79523348D01*
X96413600Y-79322422D01*
X96413599Y-79322420D01*
X96278113Y-79128926D01*
X96278108Y-79128920D01*
X96111082Y-78961894D01*
X95917578Y-78826399D01*
X95703492Y-78726570D01*
X95703486Y-78726567D01*
X95490000Y-78669364D01*
X95490000Y-79566988D01*
X95432993Y-79534075D01*
X95305826Y-79500000D01*
X95174174Y-79500000D01*
X95047007Y-79534075D01*
X94990000Y-79566988D01*
X94990000Y-78669364D01*
X94989999Y-78669364D01*
X94776513Y-78726567D01*
X94776507Y-78726570D01*
X94562422Y-78826399D01*
X94562420Y-78826400D01*
X94368926Y-78961886D01*
X94368920Y-78961891D01*
X94201891Y-79128920D01*
X94201886Y-79128926D01*
X94066400Y-79322420D01*
X94066399Y-79322422D01*
X93972705Y-79523348D01*
X93926532Y-79575787D01*
X93859339Y-79594939D01*
X93792457Y-79574723D01*
X93749323Y-79526215D01*
X93682366Y-79391745D01*
X93553872Y-79221593D01*
X93396302Y-79077948D01*
X93215019Y-78965702D01*
X93215017Y-78965701D01*
X93065829Y-78907906D01*
X93016198Y-78888679D01*
X92806610Y-78849500D01*
X92593390Y-78849500D01*
X92383802Y-78888679D01*
X92383799Y-78888679D01*
X92383799Y-78888680D01*
X92184982Y-78965701D01*
X92184980Y-78965702D01*
X92003699Y-79077947D01*
X91846127Y-79221593D01*
X91717632Y-79391746D01*
X91622596Y-79582605D01*
X91622596Y-79582607D01*
X91564244Y-79787689D01*
X91553471Y-79903951D01*
X91527685Y-79968888D01*
X91483130Y-80000804D01*
X91374622Y-80000804D01*
X91376869Y-79999194D01*
X91340497Y-79978331D01*
X91308307Y-79916318D01*
X91306529Y-79903951D01*
X91305849Y-79896613D01*
X91295756Y-79787690D01*
X91237405Y-79582611D01*
X91237403Y-79582606D01*
X91237403Y-79582605D01*
X91142367Y-79391746D01*
X91013872Y-79221593D01*
X90856302Y-79077948D01*
X90675019Y-78965702D01*
X90675017Y-78965701D01*
X90525829Y-78907906D01*
X90476198Y-78888679D01*
X90266610Y-78849500D01*
X90053390Y-78849500D01*
X89843802Y-78888679D01*
X89843799Y-78888679D01*
X89843799Y-78888680D01*
X89644982Y-78965701D01*
X89644980Y-78965702D01*
X89463699Y-79077947D01*
X89306127Y-79221593D01*
X89177632Y-79391746D01*
X89082596Y-79582605D01*
X89082596Y-79582607D01*
X89024244Y-79787689D01*
X89013471Y-79903951D01*
X88987685Y-79968888D01*
X88943130Y-80000804D01*
X88834622Y-80000804D01*
X88836869Y-79999194D01*
X88800497Y-79978331D01*
X88768307Y-79916318D01*
X88766529Y-79903951D01*
X88765849Y-79896613D01*
X88755756Y-79787690D01*
X88697405Y-79582611D01*
X88697403Y-79582606D01*
X88697403Y-79582605D01*
X88602367Y-79391746D01*
X88473872Y-79221593D01*
X88316302Y-79077948D01*
X88135019Y-78965702D01*
X88135017Y-78965701D01*
X87985829Y-78907906D01*
X87936198Y-78888679D01*
X87726610Y-78849500D01*
X87513390Y-78849500D01*
X87303802Y-78888679D01*
X87303799Y-78888679D01*
X87303799Y-78888680D01*
X87104982Y-78965701D01*
X87104980Y-78965702D01*
X86923699Y-79077947D01*
X86766127Y-79221593D01*
X86637632Y-79391746D01*
X86542596Y-79582605D01*
X86542596Y-79582607D01*
X86484244Y-79787689D01*
X86473471Y-79903951D01*
X86447685Y-79968888D01*
X86403130Y-80000804D01*
X86294622Y-80000804D01*
X86296869Y-79999194D01*
X86260497Y-79978331D01*
X86228307Y-79916318D01*
X86226529Y-79903951D01*
X86225849Y-79896613D01*
X86215756Y-79787690D01*
X86157405Y-79582611D01*
X86157403Y-79582606D01*
X86157403Y-79582605D01*
X86062367Y-79391746D01*
X85933872Y-79221593D01*
X85776302Y-79077948D01*
X85595019Y-78965702D01*
X85595017Y-78965701D01*
X85445829Y-78907906D01*
X85396198Y-78888679D01*
X85186610Y-78849500D01*
X84973390Y-78849500D01*
X84763802Y-78888679D01*
X84763799Y-78888679D01*
X84763799Y-78888680D01*
X84564982Y-78965701D01*
X84564980Y-78965702D01*
X84383699Y-79077947D01*
X84226127Y-79221593D01*
X84097632Y-79391746D01*
X84002596Y-79582605D01*
X84002596Y-79582607D01*
X83944244Y-79787689D01*
X83933471Y-79903951D01*
X83907685Y-79968888D01*
X83863130Y-80000804D01*
X83754622Y-80000804D01*
X83756869Y-79999194D01*
X83720497Y-79978331D01*
X83688307Y-79916318D01*
X83686529Y-79903951D01*
X83685849Y-79896613D01*
X83675756Y-79787690D01*
X83617405Y-79582611D01*
X83617403Y-79582606D01*
X83617403Y-79582605D01*
X83522367Y-79391746D01*
X83393872Y-79221593D01*
X83236302Y-79077948D01*
X83055019Y-78965702D01*
X83055017Y-78965701D01*
X82905829Y-78907906D01*
X82856198Y-78888679D01*
X82646610Y-78849500D01*
X82433390Y-78849500D01*
X82223802Y-78888679D01*
X82223799Y-78888679D01*
X82223799Y-78888680D01*
X82024982Y-78965701D01*
X82024980Y-78965702D01*
X81843699Y-79077947D01*
X81686127Y-79221593D01*
X81572954Y-79371458D01*
X81516845Y-79413094D01*
X81447133Y-79417785D01*
X81385951Y-79384043D01*
X81352724Y-79322579D01*
X81350000Y-79296731D01*
X81350000Y-79102172D01*
X81349999Y-79102155D01*
X81343598Y-79042627D01*
X81343596Y-79042620D01*
X81293354Y-78907913D01*
X81293350Y-78907906D01*
X81207190Y-78792812D01*
X81207187Y-78792809D01*
X81092093Y-78706649D01*
X81092086Y-78706645D01*
X80957379Y-78656403D01*
X80957372Y-78656401D01*
X80897844Y-78650000D01*
X80250000Y-78650000D01*
X80250000Y-79566988D01*
X80192993Y-79534075D01*
X80065826Y-79500000D01*
X79934174Y-79500000D01*
X79807007Y-79534075D01*
X79750000Y-79566988D01*
X79750000Y-78650000D01*
X79102155Y-78650000D01*
X79042627Y-78656401D01*
X79042620Y-78656403D01*
X78907913Y-78706645D01*
X78907906Y-78706649D01*
X78792812Y-78792809D01*
X78792809Y-78792812D01*
X78706649Y-78907906D01*
X78706645Y-78907913D01*
X78656403Y-79042620D01*
X78656401Y-79042627D01*
X78650000Y-79102155D01*
X72700000Y-79102155D01*
X72700000Y-75990882D01*
X72700012Y-75989144D01*
X72701490Y-75883713D01*
X74349500Y-75883713D01*
X74349500Y-76096286D01*
X74382753Y-76306239D01*
X74448444Y-76508414D01*
X74544951Y-76697820D01*
X74669890Y-76869786D01*
X74820213Y-77020109D01*
X74992179Y-77145048D01*
X74992181Y-77145049D01*
X74992184Y-77145051D01*
X75181588Y-77241557D01*
X75383757Y-77307246D01*
X75593713Y-77340500D01*
X75593714Y-77340500D01*
X75806286Y-77340500D01*
X75806287Y-77340500D01*
X76016243Y-77307246D01*
X76218412Y-77241557D01*
X76407816Y-77145051D01*
X76429789Y-77129086D01*
X76579786Y-77020109D01*
X76579788Y-77020106D01*
X76579792Y-77020104D01*
X76730104Y-76869792D01*
X76730106Y-76869788D01*
X76730109Y-76869786D01*
X76855048Y-76697820D01*
X76855047Y-76697820D01*
X76855051Y-76697816D01*
X76951557Y-76508412D01*
X77017246Y-76306243D01*
X77050500Y-76096287D01*
X77050500Y-75883713D01*
X134349500Y-75883713D01*
X134349500Y-76096286D01*
X134382753Y-76306239D01*
X134448444Y-76508414D01*
X134544951Y-76697820D01*
X134669890Y-76869786D01*
X134820213Y-77020109D01*
X134992179Y-77145048D01*
X134992181Y-77145049D01*
X134992184Y-77145051D01*
X135181588Y-77241557D01*
X135383757Y-77307246D01*
X135593713Y-77340500D01*
X135593714Y-77340500D01*
X135806286Y-77340500D01*
X135806287Y-77340500D01*
X136016243Y-77307246D01*
X136218412Y-77241557D01*
X136407816Y-77145051D01*
X136429789Y-77129086D01*
X136579786Y-77020109D01*
X136579788Y-77020106D01*
X136579792Y-77020104D01*
X136730104Y-76869792D01*
X136730106Y-76869788D01*
X136730109Y-76869786D01*
X136855048Y-76697820D01*
X136855047Y-76697820D01*
X136855051Y-76697816D01*
X136951557Y-76508412D01*
X137017246Y-76306243D01*
X137050500Y-76096287D01*
X137050500Y-75883713D01*
X137017246Y-75673757D01*
X136951557Y-75471588D01*
X136855051Y-75282184D01*
X136855049Y-75282181D01*
X136855048Y-75282179D01*
X136730109Y-75110213D01*
X136579786Y-74959890D01*
X136407820Y-74834951D01*
X136218414Y-74738444D01*
X136218413Y-74738443D01*
X136218412Y-74738443D01*
X136016243Y-74672754D01*
X136016241Y-74672753D01*
X136016240Y-74672753D01*
X135854957Y-74647208D01*
X135806287Y-74639500D01*
X135593713Y-74639500D01*
X135545042Y-74647208D01*
X135383760Y-74672753D01*
X135181585Y-74738444D01*
X134992179Y-74834951D01*
X134820213Y-74959890D01*
X134669890Y-75110213D01*
X134544951Y-75282179D01*
X134448444Y-75471585D01*
X134382753Y-75673760D01*
X134349500Y-75883713D01*
X77050500Y-75883713D01*
X77017246Y-75673757D01*
X76951557Y-75471588D01*
X76855051Y-75282184D01*
X76855049Y-75282181D01*
X76855048Y-75282179D01*
X76730109Y-75110213D01*
X76579786Y-74959890D01*
X76407820Y-74834951D01*
X76218414Y-74738444D01*
X76218413Y-74738443D01*
X76218412Y-74738443D01*
X76016243Y-74672754D01*
X76016241Y-74672753D01*
X76016240Y-74672753D01*
X75854957Y-74647208D01*
X75806287Y-74639500D01*
X75593713Y-74639500D01*
X75545042Y-74647208D01*
X75383760Y-74672753D01*
X75181585Y-74738444D01*
X74992179Y-74834951D01*
X74820213Y-74959890D01*
X74669890Y-75110213D01*
X74544951Y-75282179D01*
X74448444Y-75471585D01*
X74382753Y-75673760D01*
X74349500Y-75883713D01*
X72701490Y-75883713D01*
X72702274Y-75827729D01*
X72703041Y-75815610D01*
X72739277Y-75494005D01*
X72741606Y-75480299D01*
X72813426Y-75165633D01*
X72817272Y-75152279D01*
X72923883Y-74847601D01*
X72929196Y-74834777D01*
X73069243Y-74543965D01*
X73075959Y-74531813D01*
X73247693Y-74258501D01*
X73255723Y-74247183D01*
X73456979Y-73994816D01*
X73466228Y-73984467D01*
X73694467Y-73756228D01*
X73704816Y-73746979D01*
X73957183Y-73545723D01*
X73968501Y-73537693D01*
X74241813Y-73365959D01*
X74253965Y-73359243D01*
X74544777Y-73219196D01*
X74557601Y-73213883D01*
X74862279Y-73107272D01*
X74875627Y-73103427D01*
X75093293Y-73053746D01*
X75190299Y-73031606D01*
X75204005Y-73029277D01*
X75525610Y-72993041D01*
X75537729Y-72992274D01*
X75699144Y-72990011D01*
X75700882Y-72990000D01*
X135699118Y-72990000D01*
X135700855Y-72990011D01*
G37*
%TD.AperFunction*%
%TD*%
M02*
