%TF.GenerationSoftware,KiCad,Pcbnew,8.0.4*%
%TF.CreationDate,2026-01-14T17:00:29-06:00*%
%TF.ProjectId,PCB,5043422e-6b69-4636-9164-5f7063625858,rev?*%
%TF.SameCoordinates,Original*%
%TF.FileFunction,Soldermask,Top*%
%TF.FilePolarity,Negative*%
%FSLAX46Y46*%
G04 Gerber Fmt 4.6, Leading zero omitted, Abs format (unit mm)*
G04 Created by KiCad (PCBNEW 8.0.4) date 2026-01-14 17:00:29*
%MOMM*%
%LPD*%
G01*
G04 APERTURE LIST*
%ADD10R,1.700000X1.700000*%
%ADD11O,1.700000X1.700000*%
%ADD12C,2.200000*%
G04 APERTURE END LIST*
D10*
%TO.C,J1*%
X80000000Y-102860000D03*
D11*
X82540000Y-102860000D03*
X85080000Y-102860000D03*
X87620000Y-102860000D03*
X90160000Y-102860000D03*
X92700000Y-102860000D03*
X95240000Y-102860000D03*
X97780000Y-102860000D03*
X100320000Y-102860000D03*
X102860000Y-102860000D03*
X105400000Y-102860000D03*
X107940000Y-102860000D03*
X110480000Y-102860000D03*
X113020000Y-102860000D03*
X115560000Y-102860000D03*
X118100000Y-102860000D03*
X120640000Y-102860000D03*
X123180000Y-102860000D03*
X125720000Y-102860000D03*
%TD*%
D10*
%TO.C,J6*%
X80675000Y-107860000D03*
%TD*%
%TO.C,J2*%
X80000000Y-80000000D03*
D11*
X82540000Y-80000000D03*
X85080000Y-80000000D03*
X87620000Y-80000000D03*
X90160000Y-80000000D03*
X92700000Y-80000000D03*
X95240000Y-80000000D03*
X97780000Y-80000000D03*
X100320000Y-80000000D03*
X102860000Y-80000000D03*
X105400000Y-80000000D03*
X107940000Y-80000000D03*
X110480000Y-80000000D03*
X113020000Y-80000000D03*
X115560000Y-80000000D03*
X118100000Y-80000000D03*
X120640000Y-80000000D03*
X123180000Y-80000000D03*
X125720000Y-80000000D03*
%TD*%
D12*
%TO.C,H2*%
X135700000Y-130000000D03*
%TD*%
%TO.C,H2*%
X75660000Y-130000000D03*
%TD*%
D10*
%TO.C,J4*%
X135200000Y-82420000D03*
D11*
X135200000Y-84960000D03*
X135200000Y-87500000D03*
X135200000Y-90040000D03*
X135200000Y-92580000D03*
X135200000Y-95120000D03*
X135200000Y-97660000D03*
X135200000Y-100200000D03*
X135200000Y-102740000D03*
%TD*%
D12*
%TO.C,H3*%
X135700000Y-75990000D03*
%TD*%
D10*
%TO.C,J3*%
X110310000Y-118580000D03*
D11*
X112850000Y-118580000D03*
X115390000Y-118580000D03*
%TD*%
D10*
%TO.C,J5*%
X75000000Y-107860000D03*
%TD*%
%TO.C,J7*%
X94425000Y-113360000D03*
%TD*%
D12*
%TO.C,H4*%
X75700000Y-75990000D03*
%TD*%
D10*
%TO.C,J8*%
X94425000Y-119400000D03*
%TD*%
M02*
