M48
; DRILL file {KiCad 8.0.4} date 2026-01-14T17:00:20-0600
; FORMAT={-:-/ absolute / metric / decimal}
; #@! TF.CreationDate,2026-01-14T17:00:20-06:00
; #@! TF.GenerationSoftware,Kicad,Pcbnew,8.0.4
; #@! TF.FileFunction,MixedPlating,1,2
FMAT,2
METRIC
; #@! TA.AperFunction,Plated,PTH,ViaDrill
T1C0.300
; #@! TA.AperFunction,Plated,PTH,ComponentDrill
T2C1.000
; #@! TA.AperFunction,NonPlated,NPTH,ComponentDrill
T3C2.200
%
G90
G05
T1
X75.06Y-105.28
X80.28Y-82.46
X95.31Y-82.46
X111.67Y-109.48
X112.85Y-116.1
X113.15Y-108.09
X113.8Y-100.39
X132.4Y-100.24
T2
X75.0Y-107.86
X80.0Y-80.0
X80.0Y-102.86
X80.675Y-107.86
X82.54Y-80.0
X82.54Y-102.86
X85.08Y-80.0
X85.08Y-102.86
X87.62Y-80.0
X87.62Y-102.86
X90.16Y-80.0
X90.16Y-102.86
X92.7Y-80.0
X92.7Y-102.86
X94.425Y-113.36
X94.425Y-119.4
X95.24Y-80.0
X95.24Y-102.86
X97.78Y-80.0
X97.78Y-102.86
X100.32Y-80.0
X100.32Y-102.86
X102.86Y-80.0
X102.86Y-102.86
X105.4Y-80.0
X105.4Y-102.86
X107.94Y-80.0
X107.94Y-102.86
X110.31Y-118.58
X110.48Y-80.0
X110.48Y-102.86
X112.85Y-118.58
X113.02Y-80.0
X113.02Y-102.86
X115.39Y-118.58
X115.56Y-80.0
X115.56Y-102.86
X118.1Y-80.0
X118.1Y-102.86
X120.64Y-80.0
X120.64Y-102.86
X123.18Y-80.0
X123.18Y-102.86
X125.72Y-80.0
X125.72Y-102.86
X135.2Y-82.42
X135.2Y-84.96
X135.2Y-87.5
X135.2Y-90.04
X135.2Y-92.58
X135.2Y-95.12
X135.2Y-97.66
X135.2Y-100.2
X135.2Y-102.74
T3
X75.66Y-130.0
X75.7Y-75.99
X135.7Y-75.99
X135.7Y-130.0
M30
