%TF.GenerationSoftware,KiCad,Pcbnew,8.0.4*%
%TF.CreationDate,2026-01-13T19:14:07-06:00*%
%TF.ProjectId,Secondary PCB,5365636f-6e64-4617-9279-205043422e6b,rev?*%
%TF.SameCoordinates,Original*%
%TF.FileFunction,Legend,Top*%
%TF.FilePolarity,Positive*%
%FSLAX46Y46*%
G04 Gerber Fmt 4.6, Leading zero omitted, Abs format (unit mm)*
G04 Created by KiCad (PCBNEW 8.0.4) date 2026-01-13 19:14:07*
%MOMM*%
%LPD*%
G01*
G04 APERTURE LIST*
%ADD10C,0.100000*%
%ADD11C,0.150000*%
%ADD12C,0.120000*%
G04 APERTURE END LIST*
D10*
X129241979Y-61658940D02*
X129508646Y-62458940D01*
X129508646Y-62458940D02*
X129775312Y-61658940D01*
X130384836Y-62458940D02*
X130384836Y-62039892D01*
X130384836Y-62039892D02*
X130346741Y-61963702D01*
X130346741Y-61963702D02*
X130270550Y-61925606D01*
X130270550Y-61925606D02*
X130118169Y-61925606D01*
X130118169Y-61925606D02*
X130041979Y-61963702D01*
X130384836Y-62420845D02*
X130308645Y-62458940D01*
X130308645Y-62458940D02*
X130118169Y-62458940D01*
X130118169Y-62458940D02*
X130041979Y-62420845D01*
X130041979Y-62420845D02*
X130003883Y-62344654D01*
X130003883Y-62344654D02*
X130003883Y-62268464D01*
X130003883Y-62268464D02*
X130041979Y-62192273D01*
X130041979Y-62192273D02*
X130118169Y-62154178D01*
X130118169Y-62154178D02*
X130308645Y-62154178D01*
X130308645Y-62154178D02*
X130384836Y-62116083D01*
X130765789Y-61925606D02*
X130765789Y-62458940D01*
X130765789Y-62001797D02*
X130803884Y-61963702D01*
X130803884Y-61963702D02*
X130880074Y-61925606D01*
X130880074Y-61925606D02*
X130994360Y-61925606D01*
X130994360Y-61925606D02*
X131070551Y-61963702D01*
X131070551Y-61963702D02*
X131108646Y-62039892D01*
X131108646Y-62039892D02*
X131108646Y-62458940D01*
X131832456Y-62458940D02*
X131832456Y-61658940D01*
X131832456Y-62420845D02*
X131756265Y-62458940D01*
X131756265Y-62458940D02*
X131603884Y-62458940D01*
X131603884Y-62458940D02*
X131527694Y-62420845D01*
X131527694Y-62420845D02*
X131489599Y-62382749D01*
X131489599Y-62382749D02*
X131451503Y-62306559D01*
X131451503Y-62306559D02*
X131451503Y-62077987D01*
X131451503Y-62077987D02*
X131489599Y-62001797D01*
X131489599Y-62001797D02*
X131527694Y-61963702D01*
X131527694Y-61963702D02*
X131603884Y-61925606D01*
X131603884Y-61925606D02*
X131756265Y-61925606D01*
X131756265Y-61925606D02*
X131832456Y-61963702D01*
X132556266Y-62458940D02*
X132556266Y-62039892D01*
X132556266Y-62039892D02*
X132518171Y-61963702D01*
X132518171Y-61963702D02*
X132441980Y-61925606D01*
X132441980Y-61925606D02*
X132289599Y-61925606D01*
X132289599Y-61925606D02*
X132213409Y-61963702D01*
X132556266Y-62420845D02*
X132480075Y-62458940D01*
X132480075Y-62458940D02*
X132289599Y-62458940D01*
X132289599Y-62458940D02*
X132213409Y-62420845D01*
X132213409Y-62420845D02*
X132175313Y-62344654D01*
X132175313Y-62344654D02*
X132175313Y-62268464D01*
X132175313Y-62268464D02*
X132213409Y-62192273D01*
X132213409Y-62192273D02*
X132289599Y-62154178D01*
X132289599Y-62154178D02*
X132480075Y-62154178D01*
X132480075Y-62154178D02*
X132556266Y-62116083D01*
X132937219Y-62458940D02*
X132937219Y-61925606D01*
X132937219Y-62077987D02*
X132975314Y-62001797D01*
X132975314Y-62001797D02*
X133013409Y-61963702D01*
X133013409Y-61963702D02*
X133089600Y-61925606D01*
X133089600Y-61925606D02*
X133165790Y-61925606D01*
X134003885Y-62420845D02*
X134118171Y-62458940D01*
X134118171Y-62458940D02*
X134308647Y-62458940D01*
X134308647Y-62458940D02*
X134384838Y-62420845D01*
X134384838Y-62420845D02*
X134422933Y-62382749D01*
X134422933Y-62382749D02*
X134461028Y-62306559D01*
X134461028Y-62306559D02*
X134461028Y-62230368D01*
X134461028Y-62230368D02*
X134422933Y-62154178D01*
X134422933Y-62154178D02*
X134384838Y-62116083D01*
X134384838Y-62116083D02*
X134308647Y-62077987D01*
X134308647Y-62077987D02*
X134156266Y-62039892D01*
X134156266Y-62039892D02*
X134080076Y-62001797D01*
X134080076Y-62001797D02*
X134041981Y-61963702D01*
X134041981Y-61963702D02*
X134003885Y-61887511D01*
X134003885Y-61887511D02*
X134003885Y-61811321D01*
X134003885Y-61811321D02*
X134041981Y-61735130D01*
X134041981Y-61735130D02*
X134080076Y-61697035D01*
X134080076Y-61697035D02*
X134156266Y-61658940D01*
X134156266Y-61658940D02*
X134346743Y-61658940D01*
X134346743Y-61658940D02*
X134461028Y-61697035D01*
X134727695Y-61925606D02*
X134918171Y-62458940D01*
X135108648Y-61925606D02*
X134918171Y-62458940D01*
X134918171Y-62458940D02*
X134841981Y-62649416D01*
X134841981Y-62649416D02*
X134803886Y-62687511D01*
X134803886Y-62687511D02*
X134727695Y-62725606D01*
X135375314Y-62420845D02*
X135451505Y-62458940D01*
X135451505Y-62458940D02*
X135603886Y-62458940D01*
X135603886Y-62458940D02*
X135680076Y-62420845D01*
X135680076Y-62420845D02*
X135718172Y-62344654D01*
X135718172Y-62344654D02*
X135718172Y-62306559D01*
X135718172Y-62306559D02*
X135680076Y-62230368D01*
X135680076Y-62230368D02*
X135603886Y-62192273D01*
X135603886Y-62192273D02*
X135489600Y-62192273D01*
X135489600Y-62192273D02*
X135413410Y-62154178D01*
X135413410Y-62154178D02*
X135375314Y-62077987D01*
X135375314Y-62077987D02*
X135375314Y-62039892D01*
X135375314Y-62039892D02*
X135413410Y-61963702D01*
X135413410Y-61963702D02*
X135489600Y-61925606D01*
X135489600Y-61925606D02*
X135603886Y-61925606D01*
X135603886Y-61925606D02*
X135680076Y-61963702D01*
X135946743Y-61925606D02*
X136251505Y-61925606D01*
X136061029Y-61658940D02*
X136061029Y-62344654D01*
X136061029Y-62344654D02*
X136099124Y-62420845D01*
X136099124Y-62420845D02*
X136175314Y-62458940D01*
X136175314Y-62458940D02*
X136251505Y-62458940D01*
X136822934Y-62420845D02*
X136746743Y-62458940D01*
X136746743Y-62458940D02*
X136594362Y-62458940D01*
X136594362Y-62458940D02*
X136518172Y-62420845D01*
X136518172Y-62420845D02*
X136480076Y-62344654D01*
X136480076Y-62344654D02*
X136480076Y-62039892D01*
X136480076Y-62039892D02*
X136518172Y-61963702D01*
X136518172Y-61963702D02*
X136594362Y-61925606D01*
X136594362Y-61925606D02*
X136746743Y-61925606D01*
X136746743Y-61925606D02*
X136822934Y-61963702D01*
X136822934Y-61963702D02*
X136861029Y-62039892D01*
X136861029Y-62039892D02*
X136861029Y-62116083D01*
X136861029Y-62116083D02*
X136480076Y-62192273D01*
X137203886Y-62458940D02*
X137203886Y-61925606D01*
X137203886Y-62001797D02*
X137241981Y-61963702D01*
X137241981Y-61963702D02*
X137318171Y-61925606D01*
X137318171Y-61925606D02*
X137432457Y-61925606D01*
X137432457Y-61925606D02*
X137508648Y-61963702D01*
X137508648Y-61963702D02*
X137546743Y-62039892D01*
X137546743Y-62039892D02*
X137546743Y-62458940D01*
X137546743Y-62039892D02*
X137584838Y-61963702D01*
X137584838Y-61963702D02*
X137661029Y-61925606D01*
X137661029Y-61925606D02*
X137775314Y-61925606D01*
X137775314Y-61925606D02*
X137851505Y-61963702D01*
X137851505Y-61963702D02*
X137889600Y-62039892D01*
X137889600Y-62039892D02*
X137889600Y-62458940D01*
X138232457Y-62420845D02*
X138308648Y-62458940D01*
X138308648Y-62458940D02*
X138461029Y-62458940D01*
X138461029Y-62458940D02*
X138537219Y-62420845D01*
X138537219Y-62420845D02*
X138575315Y-62344654D01*
X138575315Y-62344654D02*
X138575315Y-62306559D01*
X138575315Y-62306559D02*
X138537219Y-62230368D01*
X138537219Y-62230368D02*
X138461029Y-62192273D01*
X138461029Y-62192273D02*
X138346743Y-62192273D01*
X138346743Y-62192273D02*
X138270553Y-62154178D01*
X138270553Y-62154178D02*
X138232457Y-62077987D01*
X138232457Y-62077987D02*
X138232457Y-62039892D01*
X138232457Y-62039892D02*
X138270553Y-61963702D01*
X138270553Y-61963702D02*
X138346743Y-61925606D01*
X138346743Y-61925606D02*
X138461029Y-61925606D01*
X138461029Y-61925606D02*
X138537219Y-61963702D01*
X129508646Y-62946895D02*
X129661027Y-62946895D01*
X129661027Y-62946895D02*
X129737217Y-62984990D01*
X129737217Y-62984990D02*
X129813408Y-63061180D01*
X129813408Y-63061180D02*
X129851503Y-63213561D01*
X129851503Y-63213561D02*
X129851503Y-63480228D01*
X129851503Y-63480228D02*
X129813408Y-63632609D01*
X129813408Y-63632609D02*
X129737217Y-63708800D01*
X129737217Y-63708800D02*
X129661027Y-63746895D01*
X129661027Y-63746895D02*
X129508646Y-63746895D01*
X129508646Y-63746895D02*
X129432455Y-63708800D01*
X129432455Y-63708800D02*
X129356265Y-63632609D01*
X129356265Y-63632609D02*
X129318169Y-63480228D01*
X129318169Y-63480228D02*
X129318169Y-63213561D01*
X129318169Y-63213561D02*
X129356265Y-63061180D01*
X129356265Y-63061180D02*
X129432455Y-62984990D01*
X129432455Y-62984990D02*
X129508646Y-62946895D01*
X130651503Y-63670704D02*
X130613407Y-63708800D01*
X130613407Y-63708800D02*
X130499122Y-63746895D01*
X130499122Y-63746895D02*
X130422931Y-63746895D01*
X130422931Y-63746895D02*
X130308645Y-63708800D01*
X130308645Y-63708800D02*
X130232455Y-63632609D01*
X130232455Y-63632609D02*
X130194360Y-63556419D01*
X130194360Y-63556419D02*
X130156264Y-63404038D01*
X130156264Y-63404038D02*
X130156264Y-63289752D01*
X130156264Y-63289752D02*
X130194360Y-63137371D01*
X130194360Y-63137371D02*
X130232455Y-63061180D01*
X130232455Y-63061180D02*
X130308645Y-62984990D01*
X130308645Y-62984990D02*
X130422931Y-62946895D01*
X130422931Y-62946895D02*
X130499122Y-62946895D01*
X130499122Y-62946895D02*
X130613407Y-62984990D01*
X130613407Y-62984990D02*
X130651503Y-63023085D01*
X130994360Y-63746895D02*
X130994360Y-62946895D01*
X130994360Y-62946895D02*
X131299122Y-62946895D01*
X131299122Y-62946895D02*
X131375312Y-62984990D01*
X131375312Y-62984990D02*
X131413407Y-63023085D01*
X131413407Y-63023085D02*
X131451503Y-63099276D01*
X131451503Y-63099276D02*
X131451503Y-63213561D01*
X131451503Y-63213561D02*
X131413407Y-63289752D01*
X131413407Y-63289752D02*
X131375312Y-63327847D01*
X131375312Y-63327847D02*
X131299122Y-63365942D01*
X131299122Y-63365942D02*
X130994360Y-63365942D01*
X131794360Y-63442133D02*
X132403884Y-63442133D01*
X132746740Y-63708800D02*
X132861026Y-63746895D01*
X132861026Y-63746895D02*
X133051502Y-63746895D01*
X133051502Y-63746895D02*
X133127693Y-63708800D01*
X133127693Y-63708800D02*
X133165788Y-63670704D01*
X133165788Y-63670704D02*
X133203883Y-63594514D01*
X133203883Y-63594514D02*
X133203883Y-63518323D01*
X133203883Y-63518323D02*
X133165788Y-63442133D01*
X133165788Y-63442133D02*
X133127693Y-63404038D01*
X133127693Y-63404038D02*
X133051502Y-63365942D01*
X133051502Y-63365942D02*
X132899121Y-63327847D01*
X132899121Y-63327847D02*
X132822931Y-63289752D01*
X132822931Y-63289752D02*
X132784836Y-63251657D01*
X132784836Y-63251657D02*
X132746740Y-63175466D01*
X132746740Y-63175466D02*
X132746740Y-63099276D01*
X132746740Y-63099276D02*
X132784836Y-63023085D01*
X132784836Y-63023085D02*
X132822931Y-62984990D01*
X132822931Y-62984990D02*
X132899121Y-62946895D01*
X132899121Y-62946895D02*
X133089598Y-62946895D01*
X133089598Y-62946895D02*
X133203883Y-62984990D01*
X133546741Y-63442133D02*
X134156265Y-63442133D01*
X134956264Y-63746895D02*
X134499121Y-63746895D01*
X134727693Y-63746895D02*
X134727693Y-62946895D01*
X134727693Y-62946895D02*
X134651502Y-63061180D01*
X134651502Y-63061180D02*
X134575312Y-63137371D01*
X134575312Y-63137371D02*
X134499121Y-63175466D01*
D11*
X139586666Y-64734819D02*
X139586666Y-65449104D01*
X139586666Y-65449104D02*
X139539047Y-65591961D01*
X139539047Y-65591961D02*
X139443809Y-65687200D01*
X139443809Y-65687200D02*
X139300952Y-65734819D01*
X139300952Y-65734819D02*
X139205714Y-65734819D01*
X140491428Y-65068152D02*
X140491428Y-65734819D01*
X140253333Y-64687200D02*
X140015238Y-65401485D01*
X140015238Y-65401485D02*
X140634285Y-65401485D01*
X129616666Y-64624819D02*
X129616666Y-65339104D01*
X129616666Y-65339104D02*
X129569047Y-65481961D01*
X129569047Y-65481961D02*
X129473809Y-65577200D01*
X129473809Y-65577200D02*
X129330952Y-65624819D01*
X129330952Y-65624819D02*
X129235714Y-65624819D01*
X130045238Y-64720057D02*
X130092857Y-64672438D01*
X130092857Y-64672438D02*
X130188095Y-64624819D01*
X130188095Y-64624819D02*
X130426190Y-64624819D01*
X130426190Y-64624819D02*
X130521428Y-64672438D01*
X130521428Y-64672438D02*
X130569047Y-64720057D01*
X130569047Y-64720057D02*
X130616666Y-64815295D01*
X130616666Y-64815295D02*
X130616666Y-64910533D01*
X130616666Y-64910533D02*
X130569047Y-65053390D01*
X130569047Y-65053390D02*
X129997619Y-65624819D01*
X129997619Y-65624819D02*
X130616666Y-65624819D01*
X134766666Y-64684819D02*
X134766666Y-65399104D01*
X134766666Y-65399104D02*
X134719047Y-65541961D01*
X134719047Y-65541961D02*
X134623809Y-65637200D01*
X134623809Y-65637200D02*
X134480952Y-65684819D01*
X134480952Y-65684819D02*
X134385714Y-65684819D01*
X135147619Y-64684819D02*
X135766666Y-64684819D01*
X135766666Y-64684819D02*
X135433333Y-65065771D01*
X135433333Y-65065771D02*
X135576190Y-65065771D01*
X135576190Y-65065771D02*
X135671428Y-65113390D01*
X135671428Y-65113390D02*
X135719047Y-65161009D01*
X135719047Y-65161009D02*
X135766666Y-65256247D01*
X135766666Y-65256247D02*
X135766666Y-65494342D01*
X135766666Y-65494342D02*
X135719047Y-65589580D01*
X135719047Y-65589580D02*
X135671428Y-65637200D01*
X135671428Y-65637200D02*
X135576190Y-65684819D01*
X135576190Y-65684819D02*
X135290476Y-65684819D01*
X135290476Y-65684819D02*
X135195238Y-65637200D01*
X135195238Y-65637200D02*
X135147619Y-65589580D01*
X131676666Y-91864819D02*
X131676666Y-92579104D01*
X131676666Y-92579104D02*
X131629047Y-92721961D01*
X131629047Y-92721961D02*
X131533809Y-92817200D01*
X131533809Y-92817200D02*
X131390952Y-92864819D01*
X131390952Y-92864819D02*
X131295714Y-92864819D01*
X132676666Y-92864819D02*
X132105238Y-92864819D01*
X132390952Y-92864819D02*
X132390952Y-91864819D01*
X132390952Y-91864819D02*
X132295714Y-92007676D01*
X132295714Y-92007676D02*
X132200476Y-92102914D01*
X132200476Y-92102914D02*
X132105238Y-92150533D01*
D12*
%TO.C,J4*%
X138610000Y-66390000D02*
X139940000Y-66390000D01*
X138610000Y-67720000D02*
X138610000Y-66390000D01*
X138610000Y-68990000D02*
X138610000Y-89370000D01*
X138610000Y-68990000D02*
X141270000Y-68990000D01*
X138610000Y-89370000D02*
X141270000Y-89370000D01*
X141270000Y-68990000D02*
X141270000Y-89370000D01*
%TO.C,J2*%
X128610000Y-66390000D02*
X129940000Y-66390000D01*
X128610000Y-67720000D02*
X128610000Y-66390000D01*
X128610000Y-68990000D02*
X128610000Y-89370000D01*
X128610000Y-68990000D02*
X131270000Y-68990000D01*
X128610000Y-89370000D02*
X131270000Y-89370000D01*
X131270000Y-68990000D02*
X131270000Y-89370000D01*
%TO.C,J3*%
X133610000Y-66390000D02*
X134940000Y-66390000D01*
X133610000Y-67720000D02*
X133610000Y-66390000D01*
X133610000Y-68990000D02*
X133610000Y-84290000D01*
X133610000Y-68990000D02*
X136270000Y-68990000D01*
X133610000Y-84290000D02*
X136270000Y-84290000D01*
X136270000Y-68990000D02*
X136270000Y-84290000D01*
%TO.C,J1*%
X133580000Y-91150000D02*
X133580000Y-86010000D01*
X136240000Y-86010000D02*
X133580000Y-86010000D01*
X136240000Y-91150000D02*
X133580000Y-91150000D01*
X136240000Y-91150000D02*
X136240000Y-86010000D01*
X136240000Y-92420000D02*
X136240000Y-93750000D01*
X136240000Y-93750000D02*
X134910000Y-93750000D01*
%TD*%
M02*
