M48
; DRILL file {KiCad 8.0.4} date 2026-01-13T19:14:03-0600
; FORMAT={-:-/ absolute / metric / decimal}
; #@! TF.CreationDate,2026-01-13T19:14:03-06:00
; #@! TF.GenerationSoftware,Kicad,Pcbnew,8.0.4
; #@! TF.FileFunction,MixedPlating,1,2
FMAT,2
METRIC
; #@! TA.AperFunction,Plated,PTH,ViaDrill
T1C0.300
; #@! TA.AperFunction,Plated,PTH,ComponentDrill
T2C1.000
; #@! TA.AperFunction,NonPlated,NPTH,ComponentDrill
T3C2.200
%
G90
G05
T1
X132.47Y-85.49
X137.32Y-90.59
X137.41Y-85.51
T2
X129.94Y-67.72
X129.94Y-70.26
X129.94Y-72.8
X129.94Y-75.34
X129.94Y-77.88
X129.94Y-80.42
X129.94Y-82.96
X129.94Y-85.5
X129.94Y-88.04
X134.91Y-87.34
X134.91Y-89.88
X134.91Y-92.42
X134.94Y-67.72
X134.94Y-70.26
X134.94Y-72.8
X134.94Y-75.34
X134.94Y-77.88
X134.94Y-80.42
X134.94Y-82.96
X139.94Y-67.72
X139.94Y-70.26
X139.94Y-72.8
X139.94Y-75.34
X139.94Y-77.88
X139.94Y-80.42
X139.94Y-82.96
X139.94Y-85.5
X139.94Y-88.04
T3
X126.0Y-64.0
X126.0Y-93.0
X144.0Y-64.0
X144.0Y-93.0
M30
